<svg id="Layer_1" data-name="Layer 1" xmlns="http://www.w3.org/2000/svg" viewBox="0 0 400 293.9"><defs><style>.cls-1,.cls-3,.cls-6,.cls-7{fill:none;}.cls-1{stroke:#0e4b80;stroke-width:6.8px;}.cls-1,.cls-6{stroke-miterlimit:10;}.cls-2{fill:#f47d24;}.cls-3{stroke:#fff;stroke-linejoin:round;stroke-width:3.09px;}.cls-4{fill:#0e4b80;}.cls-5{fill:#707477;fill-rule:evenodd;}.cls-6{stroke:#707477;stroke-width:0.46px;}.cls-8{fill:#231f20;}</style></defs><title>gpp-slogan-logo</title><path class="cls-1" d="M292.31,15.61H107.69a13,13,0,0,0-12.43,9.07L33.85,216.76a13,13,0,0,0,12.43,17H353.72a13,13,0,0,0,12.43-17L304.74,24.68A13,13,0,0,0,292.31,15.61Z" transform="translate(0 4.13)"/><path class="cls-2" d="M282.35,138.26v60H236.49V35.33h49.44q29.43,0,43.7,5.68t14.26,23.18v45.22q0,16-11.65,22.66t-49.89,6.19M298,106.34V67.26q0-8.64-15.68-8.64V115Q298,115,298,106.34" transform="translate(0 4.13)"/><path class="cls-3" d="M282.35,138.26v60H236.49V35.33h49.44q29.43,0,43.7,5.68t14.26,23.18v45.22q0,16-11.65,22.66T282.35,138.26ZM298,106.34V67.26q0-8.64-15.68-8.64V115Q298,115,298,106.34Z" transform="translate(0 4.13)"/><path class="cls-2" d="M197.7,136.65v60H151.84V33.72h49.44q29.43,0,43.7,5.68t14.26,23.17v45.22q0,16-11.65,22.66t-49.89,6.2m15.68-31.93V65.64q0-8.62-15.68-8.63v56.35q15.68,0,15.68-8.64" transform="translate(0 4.13)"/><path class="cls-3" d="M197.7,136.65v60H151.84V33.72h49.44q29.43,0,43.7,5.68t14.26,23.17v45.22q0,16-11.65,22.66T197.7,136.65Zm15.68-31.93V65.64q0-8.62-15.68-8.63v56.35Q213.38,113.36,213.38,104.72Z" transform="translate(0 4.13)"/><path class="cls-4" d="M170.59,196.49H148l-6.12-9Q126.37,198,109,198q-16.87,0-29.5-6.65T66.92,170.14V63.8q0-31.69,53.18-31.69,50.49,0,50.49,28.85V91.18H127.87V58.24c0-2.66-2.32-4-7-4s-7,1.32-7,4v113c0,2.66,2.32,4,7,4s7-1.32,7-4V140.83h-9.56v-25h52.28Z" transform="translate(0 4.13)"/><path class="cls-3" d="M170.59,196.49H148l-6.12-9Q126.37,198,109,198q-16.87,0-29.5-6.65T66.92,170.14V63.8q0-31.69,53.18-31.69,50.49,0,50.49,28.85V91.18H127.87V58.24c0-2.66-2.32-4-7-4s-7,1.32-7,4v113c0,2.66,2.32,4,7,4s7-1.32,7-4V140.83h-9.56v-25h52.28Z" transform="translate(0 4.13)"/><path class="cls-5" d="M320.85,147.54l-.05.05a2.58,2.58,0,1,1,.67-1.07l3.67,2.56.07-.07a3.08,3.08,0,0,1,1.45-.78,2.56,2.56,0,1,1,4,.61,2.77,2.77,0,0,1-.82.52,3.13,3.13,0,0,1-2.34,5.06l-1.93,8.1a3.49,3.49,0,0,1,1.28.86,3.55,3.55,0,0,1,.23,4.6l1.07,1a3.24,3.24,0,0,1,4.65,1.49l5.44-.69a2.56,2.56,0,1,1,4.25,2.45,2.56,2.56,0,0,1-3.62-.09,2.65,2.65,0,0,1-.62-1.15l-5.18.66A3.25,3.25,0,0,1,330,175l-.75,4.73a2.53,2.53,0,0,1,.86.6,2.57,2.57,0,1,1-2-.79l.74-4.71a3.28,3.28,0,0,1-1.52-5.1l-1.06-1a3.52,3.52,0,0,1-5.25-1.86l-8.32,1.52a3.42,3.42,0,0,1-1.06,2.41,3.38,3.38,0,0,1-3,.86l-2,4.88a2.57,2.57,0,1,1,1.12,4.77,3.57,3.57,0,0,1-.93,1.49l-.11.1,3.38,6.76a3.52,3.52,0,0,1,3.2,1,3.45,3.45,0,0,1,.88,1.66l5.07-.08a2.59,2.59,0,0,1,.77-1.51,2.56,2.56,0,1,1-.09,3.63,2.68,2.68,0,0,1-.56-.92l-5.13.08a3.51,3.51,0,0,1-3.77,3.06,3.57,3.57,0,0,1-.3.38l-.47,2.39.09.09a2.55,2.55,0,1,1-1.19-.71l.2-1a2.57,2.57,0,0,1-2.26-4.38,2.83,2.83,0,0,1,.72-.48,3.46,3.46,0,0,1,1.08-2.33,3.5,3.5,0,0,1,.63-.48l-3.28-6.56a3.57,3.57,0,0,1-4.75-2.39l-7.63.18a3.39,3.39,0,0,1-1.05,2.08,3.46,3.46,0,0,1-4.76-5,3.49,3.49,0,0,1,.62-.47l-1.65-3.9a2.56,2.56,0,1,1,1.46-.69,2.88,2.88,0,0,1-.34.27l1.66,3.9a3.45,3.45,0,0,1,4,2.64l7.58-.18a3.55,3.55,0,0,1,4.43-3.18l2.22-5.54a3.42,3.42,0,0,1-.61-.47,2.56,2.56,0,0,1-3.4-3.83,2.53,2.53,0,0,1,2.91-.43,3.66,3.66,0,0,1,.54-.65l.22-.19L305,162.17a2.57,2.57,0,1,1,1-.67l2.13,3.64a3.42,3.42,0,0,1,3.55.89,3.67,3.67,0,0,1,.75,1.23l8.31-1.51a3.57,3.57,0,0,1,1.1-2.51,3.52,3.52,0,0,1,2.54-1l1.92-8a3.14,3.14,0,0,1-1.83-4.17l-3.63-2.53Z" transform="translate(0 4.13)"/><path class="cls-6" d="M320.85,147.54l-.05.05a2.58,2.58,0,1,1,.67-1.07l3.67,2.56.07-.07a3.08,3.08,0,0,1,1.45-.78,2.56,2.56,0,1,1,4,.61,2.77,2.77,0,0,1-.82.52,3.13,3.13,0,0,1-2.34,5.06l-1.93,8.1a3.49,3.49,0,0,1,1.28.86,3.55,3.55,0,0,1,.23,4.6l1.07,1a3.24,3.24,0,0,1,4.65,1.49l5.44-.69a2.56,2.56,0,1,1,4.25,2.45,2.56,2.56,0,0,1-3.62-.09,2.65,2.65,0,0,1-.62-1.15l-5.18.66A3.25,3.25,0,0,1,330,175l-.75,4.73a2.53,2.53,0,0,1,.86.6,2.57,2.57,0,1,1-2-.79l.74-4.71a3.28,3.28,0,0,1-1.52-5.1l-1.06-1a3.52,3.52,0,0,1-5.25-1.86l-8.32,1.52a3.42,3.42,0,0,1-1.06,2.41,3.38,3.38,0,0,1-3,.86l-2,4.88a2.57,2.57,0,1,1,1.12,4.77,3.57,3.57,0,0,1-.93,1.49l-.11.1,3.38,6.76a3.52,3.52,0,0,1,3.2,1,3.45,3.45,0,0,1,.88,1.66l5.07-.08a2.59,2.59,0,0,1,.77-1.51,2.56,2.56,0,1,1-.09,3.63,2.68,2.68,0,0,1-.56-.92l-5.13.08a3.51,3.51,0,0,1-3.77,3.06,3.57,3.57,0,0,1-.3.38l-.47,2.39.09.09a2.55,2.55,0,1,1-1.19-.71l.2-1a2.57,2.57,0,0,1-2.26-4.38,2.83,2.83,0,0,1,.72-.48,3.46,3.46,0,0,1,1.08-2.33,3.5,3.5,0,0,1,.63-.48l-3.28-6.56a3.57,3.57,0,0,1-4.75-2.39l-7.63.18a3.39,3.39,0,0,1-1.05,2.08,3.46,3.46,0,0,1-4.76-5,3.49,3.49,0,0,1,.62-.47l-1.65-3.9a2.56,2.56,0,1,1,1.46-.69,2.88,2.88,0,0,1-.34.27l1.66,3.9a3.45,3.45,0,0,1,4,2.64l7.58-.18a3.55,3.55,0,0,1,4.43-3.18l2.22-5.54a3.42,3.42,0,0,1-.61-.47,2.56,2.56,0,0,1-3.4-3.83,2.53,2.53,0,0,1,2.91-.43,3.66,3.66,0,0,1,.54-.65l.22-.19L305,162.17a2.57,2.57,0,1,1,1-.67l2.13,3.64a3.42,3.42,0,0,1,3.55.89,3.67,3.67,0,0,1,.75,1.23l8.31-1.51a3.57,3.57,0,0,1,1.1-2.51,3.52,3.52,0,0,1,2.54-1l1.92-8a3.14,3.14,0,0,1-1.83-4.17l-3.63-2.53Z" transform="translate(0 4.13)"/><rect class="cls-7" width="400" height="257.63"/><path class="cls-8" d="M63.12,210.52l-2.19,2.16a6.49,6.49,0,0,0-4.86-2.2,5.55,5.55,0,0,0-4,1.6A5.2,5.2,0,0,0,50.39,216a5.4,5.4,0,0,0,1.69,4,5.8,5.8,0,0,0,4.18,1.64,5.17,5.17,0,0,0,2.73-.68,4.81,4.81,0,0,0,1.79-2.12H56v-2.91h8.24l0,.69a8,8,0,0,1-1.11,4,7.8,7.8,0,0,1-2.88,2.93,8.28,8.28,0,0,1-4.15,1,9.21,9.21,0,0,1-4.55-1.11,8,8,0,0,1-3.16-3.14,8.68,8.68,0,0,1-1.17-4.4,8.19,8.19,0,0,1,2.15-5.63,8.51,8.51,0,0,1,6.64-2.84,10.21,10.21,0,0,1,4,.78A9.2,9.2,0,0,1,63.12,210.52Z" transform="translate(0 4.13)"/><path class="cls-8" d="M66.11,212.1h2.6v1.52a3.2,3.2,0,0,1,1.13-1.36,2.71,2.71,0,0,1,1.53-.47,2.8,2.8,0,0,1,1.24.31l-1,2.6a2.16,2.16,0,0,0-.88-.26,1.4,1.4,0,0,0-1.18.86,7.76,7.76,0,0,0-.49,3.39v5.47h-3Z" transform="translate(0 4.13)"/><path class="cls-8" d="M86.24,219H76.48a3.25,3.25,0,0,0,1.13,2.05,3.6,3.6,0,0,0,2.35.76,4,4,0,0,0,2.92-1.19l2.56,1.2a6.12,6.12,0,0,1-2.29,2,7.23,7.23,0,0,1-3.17.65,6.29,6.29,0,0,1-4.64-1.79,6.08,6.08,0,0,1-1.8-4.49,6.31,6.31,0,0,1,1.79-4.58,6,6,0,0,1,4.48-1.82,6.24,6.24,0,0,1,4.65,1.82,6.57,6.57,0,0,1,1.8,4.82Zm-3-2.38A3.1,3.1,0,0,0,82,215a3.47,3.47,0,0,0-2.06-.63,3.66,3.66,0,0,0-2.23.71,3.94,3.94,0,0,0-1.11,1.56Z" transform="translate(0 4.13)"/><path class="cls-8" d="M100.84,219H91.08a3.21,3.21,0,0,0,1.13,2.05,3.58,3.58,0,0,0,2.34.76,4.09,4.09,0,0,0,2.93-1.19l2.56,1.2a6.15,6.15,0,0,1-2.3,2,7.23,7.23,0,0,1-3.17.65,6.29,6.29,0,0,1-4.64-1.79,6.07,6.07,0,0,1-1.79-4.49,6.3,6.3,0,0,1,1.78-4.58,6,6,0,0,1,4.48-1.82,6.28,6.28,0,0,1,4.66,1.82,6.6,6.6,0,0,1,1.79,4.82Zm-3-2.38A3,3,0,0,0,96.61,215a3.47,3.47,0,0,0-2.06-.63,3.68,3.68,0,0,0-2.23.71,3.94,3.94,0,0,0-1.11,1.56Z" transform="translate(0 4.13)"/><path class="cls-8" d="M103.3,212.1h3v1.24a7.38,7.38,0,0,1,1.87-1.21,4.47,4.47,0,0,1,1.72-.34,4.16,4.16,0,0,1,3,1.25,4.27,4.27,0,0,1,1.06,3.15v8h-3v-5.28a13.38,13.38,0,0,0-.19-2.87,2,2,0,0,0-.68-1.08,1.88,1.88,0,0,0-1.19-.37,2.22,2.22,0,0,0-1.58.61,3.3,3.3,0,0,0-.92,1.7,13.68,13.68,0,0,0-.13,2.45v4.84h-3Z" transform="translate(0 4.13)"/><path class="cls-8" d="M115.53,212.1h1.08c0-1.58,0-2.52.08-2.8a2.29,2.29,0,0,1,.84-1.58,3.13,3.13,0,0,1,2-.58,6.34,6.34,0,0,1,2.14.43v2.3a4.38,4.38,0,0,0-1.08-.19,1.12,1.12,0,0,0-.78.23.94.94,0,0,0-.18.68v1.51h1.92v2.56h-1.92v9.5h-3v-9.5h-1.08Z" transform="translate(0 4.13)"/><path class="cls-8" d="M124.54,207.14a1.87,1.87,0,0,1,1.37.57,2,2,0,0,1,0,2.78,1.92,1.92,0,0,1-2.74,0,2,2,0,0,1-.57-1.42,1.93,1.93,0,0,1,1.93-1.92Zm-1.52,5h3v12.06h-3Z" transform="translate(0 4.13)"/><path class="cls-8" d="M141,219h-9.76a3.25,3.25,0,0,0,1.13,2.05,3.6,3.6,0,0,0,2.35.76,4,4,0,0,0,2.92-1.19l2.56,1.2a6.12,6.12,0,0,1-2.29,2,7.23,7.23,0,0,1-3.17.65,6.29,6.29,0,0,1-4.64-1.79,6.08,6.08,0,0,1-1.8-4.49,6.31,6.31,0,0,1,1.79-4.58,6,6,0,0,1,4.48-1.82,6.24,6.24,0,0,1,4.65,1.82,6.57,6.57,0,0,1,1.8,4.82Zm-3-2.38a3.1,3.1,0,0,0-1.19-1.64,3.47,3.47,0,0,0-2.06-.63,3.66,3.66,0,0,0-2.23.71,3.94,3.94,0,0,0-1.11,1.56Z" transform="translate(0 4.13)"/><path class="cls-8" d="M143.08,207.45h3v16.71h-3Z" transform="translate(0 4.13)"/><path class="cls-8" d="M157.82,207.45h3v16.71h-3v-1.28a5.78,5.78,0,0,1-1.79,1.21,4.94,4.94,0,0,1-1.94.38,5.39,5.39,0,0,1-4.05-1.82,6.24,6.24,0,0,1-1.72-4.5,6.49,6.49,0,0,1,1.66-4.58,5.28,5.28,0,0,1,4-1.78,5.21,5.21,0,0,1,2.05.41,5.45,5.45,0,0,1,1.77,1.23Zm-3.2,7.13a3.07,3.07,0,0,0-2.34,1,4,4,0,0,0,0,5.12,3.08,3.08,0,0,0,2.33,1,3.12,3.12,0,0,0,2.38-1,3.59,3.59,0,0,0,.94-2.59,3.51,3.51,0,0,0-.94-2.55A3.18,3.18,0,0,0,154.62,214.58Z" transform="translate(0 4.13)"/><path class="cls-8" d="M170.63,207.86h3.31a10.89,10.89,0,0,1,3.86.49,3.89,3.89,0,0,1,1.87,1.6,4.85,4.85,0,0,1,.69,2.64,4.38,4.38,0,0,1-.9,2.83A4.59,4.59,0,0,1,177,217a14.12,14.12,0,0,1-3.28.25v6.91h-3.12Zm3.12,6.37h1a5.32,5.32,0,0,0,1.62-.17,1.38,1.38,0,0,0,.72-.55,1.57,1.57,0,0,0,.26-.93,1.48,1.48,0,0,0-.73-1.38,4.29,4.29,0,0,0-2-.32h-.88Z" transform="translate(0 4.13)"/><path class="cls-8" d="M182.36,212.1H185v1.52a3.18,3.18,0,0,1,1.12-1.36,2.74,2.74,0,0,1,1.54-.47,2.8,2.8,0,0,1,1.23.31l-.94,2.6a2.2,2.2,0,0,0-.88-.26,1.41,1.41,0,0,0-1.19.86,8,8,0,0,0-.48,3.39v5.47h-3Z" transform="translate(0 4.13)"/><path class="cls-8" d="M202.5,219h-9.76a3.21,3.21,0,0,0,1.13,2.05,3.58,3.58,0,0,0,2.34.76,4.07,4.07,0,0,0,2.93-1.19l2.56,1.2a6.07,6.07,0,0,1-2.3,2,7.2,7.2,0,0,1-3.17.65,6.3,6.3,0,0,1-4.64-1.79,6.11,6.11,0,0,1-1.79-4.49,6.3,6.3,0,0,1,1.78-4.58,6.06,6.06,0,0,1,4.49-1.82,6.27,6.27,0,0,1,4.65,1.82,6.6,6.6,0,0,1,1.79,4.82Zm-3-2.38a3,3,0,0,0-1.19-1.64,3.44,3.44,0,0,0-2.05-.63,3.66,3.66,0,0,0-2.23.71,3.85,3.85,0,0,0-1.12,1.56Z" transform="translate(0 4.13)"/><path class="cls-8" d="M216.81,214.54l-2.53,1.38a3.77,3.77,0,0,0-3-1.32,3.81,3.81,0,0,0-2.76,1,3.44,3.44,0,0,0-1,2.59,3.34,3.34,0,0,0,1,2.51,3.71,3.71,0,0,0,2.67,1,3.87,3.87,0,0,0,3.17-1.39l2.4,1.63a7.39,7.39,0,0,1-10.5.64,6.26,6.26,0,0,1,1.52-10,7.39,7.39,0,0,1,3.53-.84,7.2,7.2,0,0,1,3.23.71A6.1,6.1,0,0,1,216.81,214.54Z" transform="translate(0 4.13)"/><path class="cls-8" d="M220.74,207.14a1.87,1.87,0,0,1,1.37.57,1.92,1.92,0,0,1,.57,1.4,1.88,1.88,0,0,1-.57,1.38,1.81,1.81,0,0,1-1.35.57,1.85,1.85,0,0,1-1.38-.58,2,2,0,0,1-.57-1.42,1.88,1.88,0,0,1,.56-1.36A1.9,1.9,0,0,1,220.74,207.14Zm-1.52,5h3v12.06h-3Z" transform="translate(0 4.13)"/><path class="cls-8" d="M232.43,213.78l-1.88,1.88a3.15,3.15,0,0,0-2.08-1.13,1.33,1.33,0,0,0-.8.21.65.65,0,0,0-.29.54.68.68,0,0,0,.18.45,3.47,3.47,0,0,0,.91.56l1.11.55A6.76,6.76,0,0,1,232,218.6a3.52,3.52,0,0,1,.65,2.11,3.47,3.47,0,0,1-1.18,2.68,4.54,4.54,0,0,1-3.18,1.08,5,5,0,0,1-4.23-2.07l1.87-2a4.31,4.31,0,0,0,1.25,1,2.86,2.86,0,0,0,1.28.38,1.49,1.49,0,0,0,1-.29.83.83,0,0,0,.36-.66c0-.47-.44-.92-1.32-1.36l-1-.51q-2.92-1.49-2.93-3.69a3.23,3.23,0,0,1,1.1-2.45,4.08,4.08,0,0,1,2.84-1,5,5,0,0,1,4,2Z" transform="translate(0 4.13)"/><path class="cls-8" d="M236.23,207.14a1.87,1.87,0,0,1,1.37.57,1.92,1.92,0,0,1,.57,1.4,1.87,1.87,0,0,1-.56,1.38,1.92,1.92,0,0,1-2.74,0,2,2,0,0,1-.57-1.42,1.93,1.93,0,0,1,1.93-1.92Zm-1.52,5h3v12.06h-3Z" transform="translate(0 4.13)"/><path class="cls-8" d="M246.2,211.79a6.41,6.41,0,0,1,3.22.85,6.23,6.23,0,0,1,3.2,5.48,6.3,6.3,0,0,1-.85,3.19,6.15,6.15,0,0,1-2.32,2.32,6.42,6.42,0,0,1-3.24.84,6.34,6.34,0,0,1,0-12.68Zm.05,2.85a3.12,3.12,0,0,0-2.36,1,3.46,3.46,0,0,0-.94,2.51,3.54,3.54,0,0,0,.93,2.55,3.12,3.12,0,0,0,2.36,1,3.17,3.17,0,0,0,2.37-1,3.87,3.87,0,0,0,0-5.06A3.14,3.14,0,0,0,246.25,214.64Z" transform="translate(0 4.13)"/><path class="cls-8" d="M255.11,212.1h3v1.24a7.41,7.41,0,0,1,1.88-1.21,4.46,4.46,0,0,1,1.71-.34,4.2,4.2,0,0,1,3.06,1.25,4.27,4.27,0,0,1,1.06,3.15v8h-3v-5.28a13.38,13.38,0,0,0-.19-2.87,2,2,0,0,0-.68-1.08,1.88,1.88,0,0,0-1.19-.37,2.25,2.25,0,0,0-1.59.61,3.29,3.29,0,0,0-.91,1.7,13.34,13.34,0,0,0-.14,2.45v4.84h-3Z" transform="translate(0 4.13)"/><path class="cls-8" d="M275.49,207.86h3.3a10.91,10.91,0,0,1,3.87.49,3.94,3.94,0,0,1,1.87,1.6,4.85,4.85,0,0,1,.69,2.64,4.38,4.38,0,0,1-.9,2.83,4.67,4.67,0,0,1-2.43,1.58,14.16,14.16,0,0,1-3.29.25v6.91h-3.11Zm3.11,6.37h1a5.4,5.4,0,0,0,1.63-.17,1.46,1.46,0,0,0,.72-.55,1.64,1.64,0,0,0,.26-.93,1.49,1.49,0,0,0-.74-1.38,4.24,4.24,0,0,0-2-.32h-.88Z" transform="translate(0 4.13)"/><path class="cls-8" d="M287.6,207.45h3v16.71h-3Z" transform="translate(0 4.13)"/><path class="cls-8" d="M302.34,212.1h3v12.06h-3v-1.28a5.9,5.9,0,0,1-1.79,1.21,4.94,4.94,0,0,1-1.94.38,5.41,5.41,0,0,1-4.06-1.82,6.28,6.28,0,0,1-1.71-4.5,6.45,6.45,0,0,1,1.66-4.58,5.26,5.26,0,0,1,4-1.78,5.21,5.21,0,0,1,2.05.41,5.55,5.55,0,0,1,1.77,1.23Zm-3.2,2.48a3.07,3.07,0,0,0-2.34,1,4,4,0,0,0,0,5.12,3.08,3.08,0,0,0,2.33,1,3.12,3.12,0,0,0,2.38-1,3.59,3.59,0,0,0,.94-2.59,3.51,3.51,0,0,0-.94-2.55A3.2,3.2,0,0,0,299.14,214.58Z" transform="translate(0 4.13)"/><path class="cls-8" d="M315.86,213.78,314,215.66a3.17,3.17,0,0,0-2.08-1.13,1.33,1.33,0,0,0-.8.21.65.65,0,0,0-.29.54.68.68,0,0,0,.18.45,3.29,3.29,0,0,0,.91.56l1.11.55a6.76,6.76,0,0,1,2.42,1.76,3.52,3.52,0,0,1,.65,2.11,3.47,3.47,0,0,1-1.18,2.68,4.54,4.54,0,0,1-3.18,1.08,5,5,0,0,1-4.23-2.07l1.87-2a4.18,4.18,0,0,0,1.25,1,2.83,2.83,0,0,0,1.28.38,1.45,1.45,0,0,0,1-.29.81.81,0,0,0,.37-.66c0-.47-.44-.92-1.32-1.36l-1-.51q-2.94-1.49-2.94-3.69A3.2,3.2,0,0,1,309,212.8a4.06,4.06,0,0,1,2.84-1,5,5,0,0,1,4,2Z" transform="translate(0 4.13)"/><path class="cls-8" d="M318.84,207.66h3v4.44h1.8v2.6h-1.8v9.46h-3V214.7h-1.56v-2.6h1.56Z" transform="translate(0 4.13)"/><path class="cls-8" d="M326.5,207.14a1.87,1.87,0,0,1,1.37.57,1.92,1.92,0,0,1,.57,1.4,1.88,1.88,0,0,1-.57,1.38,1.83,1.83,0,0,1-1.35.57,1.85,1.85,0,0,1-1.38-.58,1.92,1.92,0,0,1-.58-1.42,1.85,1.85,0,0,1,.57-1.36A1.89,1.89,0,0,1,326.5,207.14Zm-1.52,5h3v12.06h-3Z" transform="translate(0 4.13)"/><path class="cls-8" d="M342.63,214.54l-2.53,1.38a4.22,4.22,0,0,0-1.41-1,4.27,4.27,0,0,0-1.63-.29,3.79,3.79,0,0,0-2.76,1,3.44,3.44,0,0,0-1.05,2.59,3.3,3.3,0,0,0,1,2.51,3.7,3.7,0,0,0,2.66,1,3.89,3.89,0,0,0,3.18-1.39l2.4,1.63a7.39,7.39,0,0,1-10.5.64,6.26,6.26,0,0,1,1.52-10,7.35,7.35,0,0,1,3.52-.84,7.21,7.21,0,0,1,3.24.71A6.17,6.17,0,0,1,342.63,214.54Z" transform="translate(0 4.13)"/><path class="cls-8" d="M352.78,213.78l-1.88,1.88a3.15,3.15,0,0,0-2.08-1.13,1.33,1.33,0,0,0-.8.21.65.65,0,0,0-.11,1,3.66,3.66,0,0,0,.91.56l1.11.55a6.67,6.67,0,0,1,2.42,1.76,3.68,3.68,0,0,1-.53,4.79,4.54,4.54,0,0,1-3.18,1.08,5.07,5.07,0,0,1-4.23-2.07l1.87-2a4.45,4.45,0,0,0,1.25,1,2.86,2.86,0,0,0,1.28.38,1.49,1.49,0,0,0,1-.29.83.83,0,0,0,.36-.66c0-.47-.44-.92-1.32-1.36l-1-.51q-2.94-1.49-2.94-3.69a3.23,3.23,0,0,1,1.1-2.45,4.08,4.08,0,0,1,2.84-1,5,5,0,0,1,4,2Z" transform="translate(0 4.13)"/><rect class="cls-7" width="400" height="257.63"/><path d="M11.92,264.15a1.36,1.36,0,0,1,.26.27,1.81,1.81,0,0,0,.26.33,1.54,1.54,0,0,1,.16.73.47.47,0,0,1-.09.31.55.55,0,0,0-.1.21.36.36,0,0,1-.07.17,2.23,2.23,0,0,0-.2.38,1.19,1.19,0,0,1-.5.52,2.26,2.26,0,0,1-.45.21c-.34,0-.66-.19-1-.63a1.29,1.29,0,0,0-.28-.34.79.79,0,0,1-.25-.45.89.89,0,0,1,.27-.54,3.72,3.72,0,0,1,.82-1.75c.58-.87,1-1.3,1.11-1.31a1.53,1.53,0,0,1,.44.15,2.16,2.16,0,0,1,.4.16,1,1,0,0,1-.27.7A2.66,2.66,0,0,0,11.92,264.15Zm2.11-.07.7-1.06c.42-.65.72-1,.89-1a3,3,0,0,1,.44.15,2.11,2.11,0,0,1,.4.17,1,1,0,0,1-.37.78,1.24,1.24,0,0,0-.41.79,2.5,2.5,0,0,1,.3.38l.15.17a.13.13,0,0,1,.07.11l.16.68a.6.6,0,0,1-.13.37l-.07.18a1.55,1.55,0,0,1-.63.95,1.68,1.68,0,0,1-.61.29,1.17,1.17,0,0,1-1-.63,1.47,1.47,0,0,0-.27-.32.73.73,0,0,1-.26-.46c0-.14.09-.32.3-.55A1.8,1.8,0,0,1,14,264.08Z" transform="translate(0 4.13)"/><path d="M18.78,272.88l.09-.38c-.05-.11,0-.32.27-.61a1.9,1.9,0,0,1,.19-.69,6.85,6.85,0,0,0,.27-.8,1.4,1.4,0,0,1,.48-.72,3,3,0,0,0,.09-.46s.1-.08.24-.13a2.06,2.06,0,0,0,.14-.46l.49-1c0-.07.1-.24.2-.51l.74-.8a.46.46,0,0,1,.21-.46.49.49,0,0,0,.26-.4.88.88,0,0,1,.27-.52,3.43,3.43,0,0,0,.41-.49c.09,0,.15-.08.16-.16l.15-.24c.1-.17.18-.26.25-.27h.11a1.21,1.21,0,0,1,.42-.59,6.07,6.07,0,0,0,.52-.57,1,1,0,0,1,.35-.33l.11-.15c.07,0,.24-.11.52-.37s.49-.41.63-.42l.28,0,.31-.14a.85.85,0,0,1,.78.5.63.63,0,0,0,.15-.12l.34-.19a3.9,3.9,0,0,0,.28-.29,2.62,2.62,0,0,1,.79-.43l.25-.2a.63.63,0,0,1,.33-.13l.85-.16a2.33,2.33,0,0,1,1.73.51,4.08,4.08,0,0,1,.75.79.12.12,0,0,0,0,.09l-.06.43a1.46,1.46,0,0,0,.33.24l.06.14a.13.13,0,0,1-.1.13c-.08,0-.11,0-.11.08a.17.17,0,0,0,.08.12.31.31,0,0,1,.09.19l0,.67a2.92,2.92,0,0,1-.12.74,5.38,5.38,0,0,0-.12.58l.14.44a.63.63,0,0,1-.22.28,11.69,11.69,0,0,1-.64,2.41v.12l-.15.43q-.15.45-.36.54s-.05.32-.15.9-.27.92-.51,1a.76.76,0,0,0-.21.43,2.62,2.62,0,0,1-.3.69l-.13.27a.87.87,0,0,1-.2.38,2,2,0,0,0-.31.66.7.7,0,0,1-.42.51s0,.11,0,.23a.61.61,0,0,1-.13.33.79.79,0,0,0-.14.31c0,.12-.15.23-.36.34a1.83,1.83,0,0,1-.22.45,1.2,1.2,0,0,0-.21.37.7.7,0,0,1-.51.38l-.1.06v.15l-.07.19a.75.75,0,0,0-.22.37,3.34,3.34,0,0,1-1,1c-.13.41-.31.65-.55.72s-.14.2-.13.27l.5.82.24.13a.91.91,0,0,1,.36.44.56.56,0,0,1,.22.13v.23A1.58,1.58,0,0,0,28,281l.34-.08a.46.46,0,0,1,.32.11l.09,0,.26,0a.79.79,0,0,1,.55.27.84.84,0,0,1,.31.51c0,.21,0,.34-.1.39a.65.65,0,0,0-.2.23c-.05.1-.24.16-.58.18a.73.73,0,0,0-.23.1l-.42,0a2.56,2.56,0,0,1-.83-.23,1.83,1.83,0,0,1-.6-.34,1.26,1.26,0,0,0-.26-.26,1.27,1.27,0,0,1-.32-.43,1.44,1.44,0,0,0-.24-.37.79.79,0,0,1-.19-.31,1.39,1.39,0,0,0-.25-.38s0,0,0-.06V280l-.08-.15c-.05-.08-.08-.12-.11-.12a.73.73,0,0,1-.67.43,3,3,0,0,0-.27.26,4.38,4.38,0,0,1-1,.63h-.31a.43.43,0,0,1-.28.16h0l-.19,0a.58.58,0,0,1-.36.24l-.52-.07-.27.12-.18,0-.2,0a.64.64,0,0,0-.29-.07.38.38,0,0,1-.27-.07,1.17,1.17,0,0,0-.24-.14,1,1,0,0,1-.28-.23,1.1,1.1,0,0,0-.48-.27,1,1,0,0,1-.56-.62l-.63-1.55a2.64,2.64,0,0,1-.22-.92,2.06,2.06,0,0,1,.11-.36l-.07-.24,0-.78-.08-.33a4.57,4.57,0,0,0,.21-.48l-.09-.45a2.83,2.83,0,0,1,.14-.64,2.8,2.8,0,0,0,.14-.6.73.73,0,0,1,.08-.51A.82.82,0,0,0,18.78,272.88ZM26.51,275l.19-.32.18-.09a.83.83,0,0,0,.18-.28,3,3,0,0,1,.54-.63,2.82,2.82,0,0,0,.1-.31.5.5,0,0,1,.29-.34.89.89,0,0,1,.32-.76,1.37,1.37,0,0,0,.44-.59,4,4,0,0,1,.34-.8,7.35,7.35,0,0,1,.66-1,.78.78,0,0,0,.15-.49A.76.76,0,0,1,30,269a.65.65,0,0,0,.17-.31l.15-.41a1.39,1.39,0,0,0,.09-.38.49.49,0,0,1,.22-.35.71.71,0,0,0,.12-.25.8.8,0,0,1,.35-.4l-.1-.2a1.2,1.2,0,0,1,.19-.87,1,1,0,0,0,.22-.33v-.09l-.07-.18v0a.09.09,0,0,0,0-.09v-.17l.31-2a1.29,1.29,0,0,0-.09-.59.94.94,0,0,0-.31-.47l-.19-.16c0-.06-.31-.08-.82-.07l-1,.41-1.68,1.33a1.66,1.66,0,0,0-.38.45,1.58,1.58,0,0,1-.45.5,1,1,0,0,0-.35.41.68.68,0,0,1-.21.06c-.12,0-.2.19-.23.54l-.16.37c-.15.08-.23.16-.24.26a1,1,0,0,1-.09.3,1.18,1.18,0,0,0-.1.3l-.07.18a2.09,2.09,0,0,0-.07.8,2,2,0,0,1,.31.78,1.66,1.66,0,0,1-.21.62c-.14.31-.32.47-.53.48-.53,0-.82-.28-.86-.94a2.44,2.44,0,0,1,.28-1.07l0-.24a.85.85,0,0,1,.2-.29,1.72,1.72,0,0,0,.26-.42,1.28,1.28,0,0,1,.15-.31,1.06,1.06,0,0,0,.14-.49,1.93,1.93,0,0,1,.61-.94,1.37,1.37,0,0,1,.31-.73l.13-.27a3.88,3.88,0,0,1,.59-.55l.12-.2h-.16a.71.71,0,0,0-.28.12l-.15,0-.18.15a1.11,1.11,0,0,1-.48.27l-.1.06a.45.45,0,0,1-.19.27,1.14,1.14,0,0,0-.3.35,3.5,3.5,0,0,1-.36.49l-.28.5c-.16,0-.3.17-.43.51a2.7,2.7,0,0,1-.32.65.74.74,0,0,0-.16.36.38.38,0,0,1-.14.28c0,.13-.08.26-.25.41a.55.55,0,0,0-.1.27l-.26.43a.45.45,0,0,1-.18.36c-.13.11-.19.18-.19.2l.1.24a1.54,1.54,0,0,1-.33.59,2.46,2.46,0,0,0-.42.89l-.05.15a.45.45,0,0,0-.22.41c0,.08,0,.25,0,.52a1.13,1.13,0,0,0-.32.4,1.14,1.14,0,0,0-.17.62,1.32,1.32,0,0,1-.17.68,4.4,4.4,0,0,0-.32,1.08.16.16,0,0,0-.11,0l.11.32a2.71,2.71,0,0,0-.29.79l.15.39A.43.43,0,0,0,20,276l0,.24,0,.39.05.35a.34.34,0,0,1,0,.19l0,.3.1.45a2.24,2.24,0,0,1-.05.41,1.12,1.12,0,0,0,.14.18,2.15,2.15,0,0,0,.5,1.49l.15.21h.29a.25.25,0,0,0,.16-.06.42.42,0,0,1,.19-.07.45.45,0,0,0,.21-.12,1,1,0,0,0,.47-.26.69.69,0,0,1,.43-.22c.16,0,.36-.2.62-.53l.18-.13.68-.64.1-.05a.15.15,0,0,0,.09-.12,2.61,2.61,0,0,1-.53-.73c-.11-.22-.22-.33-.34-.32s-.09,0-.15.1a.88.88,0,0,1-.48.26c-.56,0-.84-.07-.86-.33,0-.52.33-.81,1.08-.85a2.12,2.12,0,0,1,.89.28,2.62,2.62,0,0,0,.34.33l.49.51s.07.06.09.06.37-.26.72-.75a4,4,0,0,0,.63-1.14A2,2,0,0,1,26.51,275Z" transform="translate(0 4.13)"/><path d="M32.15,274l.21.07a.61.61,0,0,1,.26-.44h.11c.1,0,.22-.14.36-.41l.24-.16a.48.48,0,0,0,.18,0c.06,0,.11,0,.16-.12a4.42,4.42,0,0,1,.38-.48h.05a.36.36,0,0,0,.21-.15.44.44,0,0,1,.32-.15l.49-.16.26-.07c.08,0,.31.13.67.49a1.69,1.69,0,0,1,.58,1.09.34.34,0,0,1-.3.38l-.07.06,0,.29-.21.56a.48.48,0,0,1-.24.29,2.3,2.3,0,0,1-.17.33l-.2,0-.08.1,0,.36a4.38,4.38,0,0,0-.33.79,2.67,2.67,0,0,0-.2.77c0,.18.05.27.13.27a.29.29,0,0,0,.17-.09,1.86,1.86,0,0,1,.23-.18.69.69,0,0,0,.21-.21.67.67,0,0,1,.3-.2,1.06,1.06,0,0,0,.42-.33l.27-.31a1.2,1.2,0,0,0,.18-.2c.06-.09.1-.14.12-.14a1.22,1.22,0,0,0,.28-.07,1,1,0,0,1,0-.24l.34-.19.8-.81.11-.16a1.25,1.25,0,0,0,.28-.1,1,1,0,0,1,.36-.59s0-.07.14-.1a1,1,0,0,1,.28-.39,1.25,1.25,0,0,0,.28-.36l.32-.3a.35.35,0,0,0,.19-.19,8.66,8.66,0,0,1,.89-.82,1.47,1.47,0,0,1,.59-.13.83.83,0,0,1,.68.28,2.12,2.12,0,0,0,.58.44.62.62,0,0,1,.34.59,4.63,4.63,0,0,1-.56,1.66,9.35,9.35,0,0,0-.35,1.57c0,.18,0,.3-.11.33s-.11.07-.11.11v.06c0,.23.06.34.13.34s.14-.06.24-.16a2,2,0,0,1,.6-.36l.13,0a2.23,2.23,0,0,1,.52-.72.68.68,0,0,0,.28-.28.47.47,0,0,1,.34-.25.44.44,0,0,0,.26-.09,1.27,1.27,0,0,1,.53-.82,2.47,2.47,0,0,1,.62-.48c.1,0,.18.06.25.21a.65.65,0,0,0,.2.28c.06.05.1.1.1.14v.26a.24.24,0,0,1-.17.26q-.12.33-.24.39h-.26a1.36,1.36,0,0,0-.12.17q0,.07-.06.06a1.23,1.23,0,0,0-.39.41,6.34,6.34,0,0,1-.5.62l0,.09a.48.48,0,0,1-.21.13l-.25.24-.18-.08s-.06,0-.11.13a1.63,1.63,0,0,1-.37.32,1.37,1.37,0,0,0-.4.44l-.22.25-.3.06s-.08.05-.14.14l-.24.35a.7.7,0,0,1-.58.28c-.06,0-.14,0-.24-.13a3,3,0,0,0-.27-.25,7.61,7.61,0,0,1-.6-.62,6.71,6.71,0,0,1-.46-.55l0-.52,0-.35a.8.8,0,0,1,.12-.32l.13-.23-.06-.57,0-.09.18-.35a2.69,2.69,0,0,1,0-.32l0-.48a1,1,0,0,0-.43.5.6.6,0,0,1-.49.39c-.17.34-.3.51-.4.5l-.08.13-.2.12h-.24l-.07.37a1.21,1.21,0,0,0-.4.34,1.24,1.24,0,0,1-.28.3l-.23.25h-.24a.94.94,0,0,1-.41.69L37,278h-.26a.92.92,0,0,1-.33.59c-.17,0-.38.17-.65.49s-.46.48-.58.49A2.35,2.35,0,0,1,33,278.06l-.15-.21a.84.84,0,0,1-.14-.49,1.35,1.35,0,0,1,.1-.78,3.69,3.69,0,0,0,.35-.79q.21-.57.33-.51a.72.72,0,0,0,0-.17.79.79,0,0,0,.2-.44.05.05,0,0,0-.06-.06,1,1,0,0,0-.17.1l-.2.1a.35.35,0,0,0-.18.13.6.6,0,0,1-.2.18l-.22.15h0c-.06,0-.1-.08-.12-.08a1.08,1.08,0,0,1-.13.31l-.17,0c-.2.23-.33.35-.39.35a.63.63,0,0,1-.27-.08c-.14-.06-.21-.13-.22-.19l.07-.58,0-.26s0-.06.11-.12a1.09,1.09,0,0,0,.22-.33A.57.57,0,0,1,32.15,274Z" transform="translate(0 4.13)"/><path d="M56.87,274.64l.22-.21a.24.24,0,0,0,.25-.22.48.48,0,0,1,.29-.33,1.16,1.16,0,0,0,.48-.5q.21-.37.45-.39a.35.35,0,0,1,.22.13.55.55,0,0,1,.13.23,2,2,0,0,1-.23,1l0,.41-.09.2a.62.62,0,0,0-.27.26,1,1,0,0,1-.32.34l-.13.22a.65.65,0,0,0-.41.36.42.42,0,0,1-.29.28.81.81,0,0,0-.42.32,2.84,2.84,0,0,1-.34.15l0,.15a1.07,1.07,0,0,1-.44.26,2.46,2.46,0,0,0-.46.19.88.88,0,0,1-.21.1,1.24,1.24,0,0,1-.51-.08,1.73,1.73,0,0,0-.49-.11.36.36,0,0,1-.12-.19A.6.6,0,0,0,54,277a.71.71,0,0,1-.16-.45l0-.28s0-.08-.08-.14a.23.23,0,0,1-.08-.14.12.12,0,0,1,0-.09.2.2,0,0,0,0-.09.53.53,0,0,0,0-.16.51.51,0,0,1,0-.14l.05-.72c0-.06,0-.09-.07-.09a.61.61,0,0,0-.2.16.49.49,0,0,1-.35.17.71.71,0,0,0-.17.38,1.42,1.42,0,0,1-.27.28l-.06.09c0,.07-.08.13-.2.18a.54.54,0,0,0-.26.18l-.13.16-.28,0a1.77,1.77,0,0,0-.15.27,1.1,1.1,0,0,1-.31.39l-1,1a5.71,5.71,0,0,1-.5.32l-.08.1a3.89,3.89,0,0,1-1.6.87,2.45,2.45,0,0,1-.93-.16c-.36-.13-.56-.29-.6-.49l-.19-.59a1.06,1.06,0,0,1-.16-.56.78.78,0,0,1,0-.24V277l-.06-.48c0-.11.08-.18.27-.19L46.3,276a2.31,2.31,0,0,1,.23-.47,2,2,0,0,1,.32-.48l.13-.2a.5.5,0,0,1,.18-.39,2,2,0,0,0,.33-.42,1.87,1.87,0,0,1,.47-.48l.41-.46a4.22,4.22,0,0,1,1.06-.89,1.46,1.46,0,0,0,.34-.31,1.76,1.76,0,0,1,.59-.43,3.73,3.73,0,0,0,.65-.35,1.16,1.16,0,0,1,.51-.22h.12a5.57,5.57,0,0,0,.75-.41h.09a.75.75,0,0,1,.28.1h0l.23-.13a.26.26,0,0,1,.14,0c.6,0,1,.36,1.07,1.19,0,.17.08.26.16.25s.23-.19.38-.55a1.17,1.17,0,0,1,1.12-.61c.42,0,.64.23.67.77a2.49,2.49,0,0,1-.73,1.84,1.07,1.07,0,0,0-.08.27l-.16.61v0a.55.55,0,0,1-.11.25.48.48,0,0,0-.11.28l.05.36,0,.41q0,.28.12.36a1.21,1.21,0,0,0,.66-.43,1.08,1.08,0,0,1,.27-.32l.15-.06A1.62,1.62,0,0,1,56.87,274.64Zm-4.84.3a.64.64,0,0,1,.33-.51.73.73,0,0,0,.33-.37,6.2,6.2,0,0,0,.75-.77c.33-.38.49-.6.48-.68s0,0-.06,0h0l-.11.08h-.26l-.28.05L53,272.6l-.19,0-.29,0a.82.82,0,0,0-.4.12,3.19,3.19,0,0,1-.63.25,2.24,2.24,0,0,0-.83.45,1.27,1.27,0,0,1-.53.32,2.32,2.32,0,0,1-.65.67.66.66,0,0,0-.42.53,2.18,2.18,0,0,0-.36.37l-.09.26a.85.85,0,0,1-.28.18.35.35,0,0,0-.18.32.86.86,0,0,1-.17.45.51.51,0,0,0-.15.33c0,.47.13.7.32.69a1.62,1.62,0,0,0,.48-.18,1.47,1.47,0,0,0,.41-.24.88.88,0,0,1,.23-.13l.27-.16a.23.23,0,0,1,.12-.08.26.26,0,0,0,.14-.1.87.87,0,0,1,.26-.19.8.8,0,0,0,.27-.28l.78-.5.29-.25a1.14,1.14,0,0,0,.38-.27A.68.68,0,0,1,52,274.94Z" transform="translate(0 4.13)"/><path d="M60,274.76v-.1a1.06,1.06,0,0,1,0-.32,1.22,1.22,0,0,1-.12-.42s0-.16.12-.42l.11-.46a2.34,2.34,0,0,1,.1-.28,1.63,1.63,0,0,1-.11-.26.81.81,0,0,1,.16-.56,1.81,1.81,0,0,0,.28-.64l.24-.9.41-1.2a1.59,1.59,0,0,1,.13-.24l.18-.34c0-.1.12-.23.2-.42l.15,0a.24.24,0,0,0,0-.13s0-.09-.07-.22l.45-.88.27-.65a.79.79,0,0,1,.3-.34,1.56,1.56,0,0,1,.48-.68,2,2,0,0,1,.28-.62l.28,0a1.43,1.43,0,0,1,.12-.31V264c0,.05,0,0,.07-.06a3.92,3.92,0,0,0,.19-.53l.37-.48.1-.21a2.38,2.38,0,0,0,.21-.41.76.76,0,0,0,.35-.34l.29-.26c0-.11.07-.36.31-.74a2.16,2.16,0,0,0,.43-.29l.2-.07a.72.72,0,0,1,.32-.72l.17-.13a1.06,1.06,0,0,1,.26-.13l.1,0a1.49,1.49,0,0,1,.4-.08,1.4,1.4,0,0,1,1,.34,1.22,1.22,0,0,1,.5.89.65.65,0,0,1-.2.43l-.05.12c-.1.55-.18.82-.24.82a.43.43,0,0,0-.16.1,2.73,2.73,0,0,1,0,.54c-.18,0-.25.27-.23.67a1.08,1.08,0,0,1-.19.32,1.59,1.59,0,0,0-.25.6c0,.25-.12.38-.19.38h-.16l.05.22a.58.58,0,0,1-.17.41.85.85,0,0,0-.22.43,1.16,1.16,0,0,1-.31.55l-.14.24a1.75,1.75,0,0,1-.21.32,1.36,1.36,0,0,0-.22.51l-.34.72c-.23.49-.41.74-.55.72a4.79,4.79,0,0,1-.14.67.36.36,0,0,1-.19.17A.51.51,0,0,0,65,270a1,1,0,0,1-.18.29l-.23.55a.64.64,0,0,0-.31.4c-.15.05-.24.18-.27.41a1.11,1.11,0,0,0-.13.27l-.48.54a.86.86,0,0,0-.38.66.35.35,0,0,1-.36.38,2.11,2.11,0,0,1-.74-.17h0a1.28,1.28,0,0,1-.18.46l.08.39a7.09,7.09,0,0,1-.17.94.82.82,0,0,1,.13.3v.32l.1.39c.07.32.19.47.38.46l.35,0s.14-.09.35-.25l.52-.32a0,0,0,0,1,0,0,.59.59,0,0,0,.24,0c.1,0,.14-.08.13-.24v-.19a.37.37,0,0,1,.2-.19.44.44,0,0,0,.22-.14.29.29,0,0,1,.15-.11h.15c.15,0,.21-.19.19-.53a.64.64,0,0,0,.14-.12H65q.12,0,.24-.3a2.07,2.07,0,0,1,.17-.36.84.84,0,0,0,.36-.11c.28-.58.5-.87.67-.88h.08a.78.78,0,0,0,.25-.43.28.28,0,0,1,.13-.25,1.12,1.12,0,0,0,.22-.16q.09-.09.12-.09c.15,0,.22,0,.23.14l0,.41.13.43a.55.55,0,0,1-.11.24.56.56,0,0,0-.1.38c0,.28,0,.43-.12.46a.34.34,0,0,0-.23.21.85.85,0,0,1-.29.32.88.88,0,0,0-.31.42l-.25.08-.14.09a1,1,0,0,1-.34.58,1.83,1.83,0,0,0-.45.64s0,0,0,0l-.23,0c-.08.16-.16.26-.25.29a.52.52,0,0,0-.21.18.57.57,0,0,1-.3.23.53.53,0,0,0-.27.22.22.22,0,0,1-.17.15.35.35,0,0,0-.21.12.24.24,0,0,1-.17.1.77.77,0,0,1-.2,0h-.06a.78.78,0,0,1-.4.2.43.43,0,0,0-.27.08.63.63,0,0,0-.28-.07,1.79,1.79,0,0,1-.42-.13,1.92,1.92,0,0,1-.31.08c-.16,0-.38-.14-.65-.45a1.59,1.59,0,0,1-.44-.93l-.18-.22a.65.65,0,0,1-.19-.45v-.6l0-.09c.15,0,.22-.05.22-.07Zm2.73-4,.29-.19a1.4,1.4,0,0,1,.35-.59c.2-.23.34-.35.43-.35h.12a.39.39,0,0,1,0-.21,1,1,0,0,0,0-.28c0-.06.11-.22.36-.5l.1-.27a1.16,1.16,0,0,1,.62-.67c.12-.29.21-.44.28-.44l.11,0a1.07,1.07,0,0,1,.21-.41l.06-.08,0-.24a1.08,1.08,0,0,1,.19-.25,1.82,1.82,0,0,0,.26-.41.62.62,0,0,1,.22-.3.55.55,0,0,0,.19-.38l.23,0a.53.53,0,0,1,0-.25l0-.15a10.39,10.39,0,0,1,.45-1l.2-.55a.41.41,0,0,1,.11-.22.47.47,0,0,0,.1-.36l.09-.49c0-.23-.06-.34-.13-.33a1.31,1.31,0,0,1-.26.16q-.14,0-.21.54-.44.12-.48.45a.87.87,0,0,1-.33.55l-.09.18A.56.56,0,0,1,66,264a1.81,1.81,0,0,0-.43.63c-.44.7-.69,1.08-.73,1.13l-.14.18-.22,0a1.69,1.69,0,0,1,.07.26.23.23,0,0,1-.07.18.37.37,0,0,0-.12.2,1.2,1.2,0,0,1-.16.28,1.56,1.56,0,0,0-.21.51,1,1,0,0,1-.17.41h-.21c-.12.08-.18.17-.17.24l.05.2a.25.25,0,0,1-.07.15.65.65,0,0,0-.13.32,3.58,3.58,0,0,1-.33.73,5.36,5.36,0,0,0-.4,1,1.71,1.71,0,0,1-.28.7.09.09,0,0,0,.09,0C62.53,271.13,62.65,271,62.75,270.72Z" transform="translate(0 4.13)"/><path d="M66.35,272.78l.22-.21h.09c.07,0,.17-.08.29-.24l.15-.06a1.17,1.17,0,0,1,.48-.55l.22-.18a.52.52,0,0,1,.16-.12,1.25,1.25,0,0,0,.33-.3c.16-.17.28-.26.38-.26a.57.57,0,0,1,.23,0,.9.9,0,0,1,.33-.36,1.62,1.62,0,0,0,.4-.43l.19-.1a1.76,1.76,0,0,0,.39-.32.65.65,0,0,1,.47-.21,1.32,1.32,0,0,1,.91.37,1.18,1.18,0,0,1,.5.8l-.17,1.15q-.18,1.28-.48,1.35l0,.31c-.13.1-.19.18-.19.24l.11.35a.51.51,0,0,1-.15.23s0,0,0,.08l0,.6a.3.3,0,0,1-.18.28l.09.05a.58.58,0,0,1,.39-.11h.23l.3-.34a1.12,1.12,0,0,0,.28-.15,3.65,3.65,0,0,1,.6-.32l1.82-1.58c.24-.27.44-.42.57-.43s.23.08.24.27a1,1,0,0,1-.1.54,3.4,3.4,0,0,0-.19.52,1,1,0,0,1-.22.43,1.39,1.39,0,0,0-.21.27,1.67,1.67,0,0,1-.45.43,5,5,0,0,0-.62.57,3.05,3.05,0,0,1-.42.41l-.6.49-.08.16-.26.14a1.75,1.75,0,0,0-.42.26l-.25.16a.49.49,0,0,1-.28.09.56.56,0,0,0-.33.19c-.09.11-.17.17-.23.17l-.22,0-.28.11a1.07,1.07,0,0,1-.63-.26.83.83,0,0,1-.39-.62v-.08l0-.21a1.1,1.1,0,0,0-.11-.29c-.06-.16-.1-.25-.1-.27l0-.2,0-.09a1.51,1.51,0,0,1,0-.5,1,1,0,0,0,.07-.29c0-.12,0-.22,0-.3l0-.37a.44.44,0,0,1,.13-.24c0-.08,0-.22.1-.4l0-.27.13-.21a.44.44,0,0,0,.12-.32,1.06,1.06,0,0,1,.13-.43,1,1,0,0,0,.12-.27.16.16,0,0,0-.19-.16,1.24,1.24,0,0,0-.35.25l-.27-.07s-.07.05-.15.16,0,.07-.13.09a.45.45,0,0,0-.23.24l-.12,0-.19-.07h-.06c-.1,0-.15.12-.15.33a.78.78,0,0,1-.41.33l-.31.11a.38.38,0,0,0-.22.28.84.84,0,0,1-.27.38c-.14.13-.23.19-.28.19-.28,0-.42-.13-.44-.43l.08-.69Zm5.86-7.67-.12-.56v-.09q0-.69.42-.78c.07,0,.27-.09.61-.23a1.06,1.06,0,0,1,.57.43,1.21,1.21,0,0,1,.33.69.49.49,0,0,1,0,.13,1.25,1.25,0,0,0,0,.39.67.67,0,0,1-.26.51.92.92,0,0,1-.56.25.9.9,0,0,1-.54-.25A.94.94,0,0,1,72.21,265.11Z" transform="translate(0 4.13)"/><path d="M79.15,263.86l.2-.07.14-.16h0l.13.05h0a1.36,1.36,0,0,0,.62-.17,2.71,2.71,0,0,1,.44-.23,1.24,1.24,0,0,0,.22-.1l.08,0h.23c.08,0,.18-.15.29-.43a1.68,1.68,0,0,1,.41-.64,1.81,1.81,0,0,0,.45-.74,1,1,0,0,0,.12-.23c0-.11.08-.16.11-.16s.25-.11.33-.3c.27-.36.5-.54.68-.56s.43.21.55.67l.19.55a1.39,1.39,0,0,1-.07.21,1.11,1.11,0,0,0,0,.4.59.59,0,0,1,0,.27.66.66,0,0,0,0,.15c0,.08.09.11.26.1a1,1,0,0,0,.31-.13l.09,0a.45.45,0,0,0,.25.07,2.77,2.77,0,0,0,.41-.17l.47-.19a1.79,1.79,0,0,0,.35-.13l.17,0,.12,0a.55.55,0,0,0,.23-.14,1.55,1.55,0,0,1,.69-.19l.2-.1h.06c.32,0,.49.11.5.39a.57.57,0,0,1-.12.31,1.93,1.93,0,0,0-.19.51l-.62.89a1,1,0,0,1-.65.48s-.17-.12-.39-.37t-.06,0a1,1,0,0,0-.3.08.78.78,0,0,1-.26.07s-.28.09-.76.27l-.34.08a1.16,1.16,0,0,0-.28.07l-.73.19a1.32,1.32,0,0,0-.56.75s0,.07-.14.14l-.58,1.24a.56.56,0,0,0-.4.4L82,267a.61.61,0,0,0-.29.2,1.56,1.56,0,0,1-.23.26l-.24.41a4,4,0,0,0-.29.46,1.73,1.73,0,0,0-.21.53,1.07,1.07,0,0,1-.09.32.22.22,0,0,0,0,.16l0,.12a.51.51,0,0,0-.16.4l.08.23a6.5,6.5,0,0,0-.16.76,1.16,1.16,0,0,0,0,.16v.09a2.06,2.06,0,0,1-.18.81l0,.23,0,.67a2.4,2.4,0,0,0,.12.47s-.06.07-.06.09a1.45,1.45,0,0,0,.49.87,2.25,2.25,0,0,1,.52,1.5.66.66,0,0,1,0,.26,2.05,2.05,0,0,0,0,.37.58.58,0,0,1-.21.4.62.62,0,0,1-.34.21c-.52,0-.93-.32-1.23-1.06a6.26,6.26,0,0,1-.46-1.42v-.57l-.1-.28v-1.29l-.08-.3.26-1.28,0-.45a1.38,1.38,0,0,1,.2-.25s0,0-.07,0-.13.06-.22.19a1.86,1.86,0,0,1-.34.35l-.11.22-.12-.06a3.67,3.67,0,0,0-.44.72.65.65,0,0,0-.46.38.52.52,0,0,1-.46.33l-.06,0c0,.28-.15.43-.38.44l-.06,0c-.13.34-.27.51-.42.5a1,1,0,0,1-.68.65.64.64,0,0,1-.24.27,1,1,0,0,0-.23.18c0,.05-.09.08-.13.08s-.2-.13-.22-.4a.48.48,0,0,1,.08-.26.45.45,0,0,0,.09-.2.9.9,0,0,0-.16-.17c0-.3,0-.49.2-.58a.82.82,0,0,0,.33-.36.43.43,0,0,1,.28-.26c.14-.06.21-.13.2-.2s.12-.22.36-.44a3.14,3.14,0,0,0,.52-.56c.11-.16.2-.24.28-.25l.05-.06c0-.24.09-.37.26-.38l.14-.09,0-.12.09-.07h.11l.07-.07a.74.74,0,0,1,.31-.59,7.55,7.55,0,0,0,1.08-1.21,6.91,6.91,0,0,0,.86-1.26,5.57,5.57,0,0,1,.33-.73,2,2,0,0,0,.25-.85.53.53,0,0,0-.1-.12l-.61.35s-.1-.07-.29-.12a1,1,0,0,0-.31.29c-.06.09-.11.13-.15.14l-.21,0-.64.11a3,3,0,0,0-1.27.43l-.59.21H76a.7.7,0,0,0-.34.17H75.3a1.78,1.78,0,0,1-.67.29l-.18,0-1.46.5a3.77,3.77,0,0,0-.75.64l-.11,0c-.1,0-.22-.1-.37-.31a1.23,1.23,0,0,1-.23-.58c-.06-1,.73-1.57,2.38-1.83l.58-.27h0l.16.05h.06a.78.78,0,0,0,.27-.13,4,4,0,0,1,.83-.32l.59-.2.19,0a.57.57,0,0,0,.32-.13,1.24,1.24,0,0,1,.55-.2,2.31,2.31,0,0,0,.51-.15l.23-.07a.62.62,0,0,0,.23-.11,1,1,0,0,1,.47-.14Z" transform="translate(0 4.13)"/><path d="M94.68,272.6v.16l0,.11v.06s0,.13,0,.34a1,1,0,0,0-.2.67l-.16.27a.45.45,0,0,1-.12.33A1,1,0,0,0,94,275c-.06.24-.13.49-.21.76l-.28.85a.05.05,0,0,0,.06.06l.09,0,.12,0a.17.17,0,0,1,.12,0,.18.18,0,0,0,.09,0,1,1,0,0,0,.21-.11,1,1,0,0,1,.41-.16l.53-.16a2.5,2.5,0,0,1,.71-.1l.45-.06a2.49,2.49,0,0,1,1.11.21,1.39,1.39,0,0,1,.72.54,2.56,2.56,0,0,1,.2,1c0,.36-.09.54-.33.56a1,1,0,0,1-.58-.25,1.38,1.38,0,0,1-.52-.67c-.1-.27-.25-.41-.45-.4l-.37-.09-.2.07h-.06a1.24,1.24,0,0,1-.27-.08h0l-.43.14-.6,0-.27.17a2.57,2.57,0,0,1-.44.11,1.3,1.3,0,0,0-.42.15c-.13.06-.18.12-.18.17a1,1,0,0,1-.35.79,1,1,0,0,0-.14.39.52.52,0,0,1-.15.31,2.57,2.57,0,0,0-.29.54l-.11.21a.26.26,0,0,0,0,.15.24.24,0,0,0,0,.11v.14a1,1,0,0,1-.44.8v.14a.64.64,0,0,1-.21.35l.07.29a.57.57,0,0,1-.14.25,1.67,1.67,0,0,0-.25.43,1,1,0,0,1-.39.42v.09l.1.17s.05,0,.05.06a.58.58,0,0,1-.2.31,1.43,1.43,0,0,1-.18.47L90,285a.55.55,0,0,0-.12.33l-.09.28a.85.85,0,0,0-.21.28,4.14,4.14,0,0,1-.35.57c-.2.29-.33.43-.4.44a1.08,1.08,0,0,1,.1.2.7.7,0,0,1-.21.43c-.25,0-.38.08-.37.19l.09.28s0,.1-.15.19a.48.48,0,0,1-.26.13h-.2l.08.26a.38.38,0,0,1-.17.23,1.77,1.77,0,0,0-.36.37,1.61,1.61,0,0,1-.37.36l-.18.13-.57.09a5.51,5.51,0,0,1-.93-.42,1.64,1.64,0,0,1-.8-.72,3.86,3.86,0,0,1-.15-1c0-.05,0-.13.13-.26l0-.12,0-.27s0-.2.12-.53.15-.52.21-.55a1.54,1.54,0,0,0,.29-.6,4.17,4.17,0,0,1,.29-.71l1.23-2a.37.37,0,0,1,0-.26h.09a.18.18,0,0,0,.15-.09,1.45,1.45,0,0,1,.12-.19.54.54,0,0,1,.23-.47,1.07,1.07,0,0,0,.34-.41,2,2,0,0,1,.24-.4l0-.09a.93.93,0,0,1,.25-.15.33.33,0,0,0,.21-.24l.47-.51a.89.89,0,0,1,.22-.16,1.33,1.33,0,0,0,.32-.34l.1-.05h.08l.06,0c.1-.26.21-.41.33-.43a.55.55,0,0,0,.24-.1c0-.31.13-.47.48-.49a.18.18,0,0,0,.17-.07l.34-.29a2.07,2.07,0,0,0,.24-.59v0l.27.06,0-.08-.08-.31a2,2,0,0,0,.15-.41c.08-.24.15-.38.23-.42s.11-.09.11-.14v-.17l0-.18,0-.12v-.19l0-.06a1.36,1.36,0,0,0,.15-.55.49.49,0,0,1,.15-.12l.54-1.89a2.59,2.59,0,0,0,.07-.39l.1-.17a2.15,2.15,0,0,0,.14-.61s0-.05-.06-.05-.12.06-.25.18-.23.19-.3.19l-.23,0h-.06c-.06,0-.14.06-.23.16a1.18,1.18,0,0,1-.18.16l-.17,0c-.09.17-.17.26-.25.29l-.35.25h0l-.21-.14s0,0-.07,0-.1.12-.16.36l-.44.24a.62.62,0,0,0-.18,0c-.09,0-.18.1-.26.28a.44.44,0,0,1-.33.32,1,1,0,0,1-.53.24l-.82.65a.42.42,0,0,0-.2.16.84.84,0,0,0-.55.37H87a.41.41,0,0,0-.28.21.38.38,0,0,1-.27.21h-.09l-.18,0-.47.15a1.33,1.33,0,0,1-.65-.28c-.29-.19-.45-.36-.46-.52l-.12-.65a.76.76,0,0,1,.1-.21.5.5,0,0,0,.1-.26.45.45,0,0,0,0-.11v-.12a2.91,2.91,0,0,1,.29-1.25v-.05s0-.06-.09-.06-.23.12-.3.34a1.17,1.17,0,0,1-.28.46,1.82,1.82,0,0,0-.24.23c0,.07-.09.1-.13.1a1,1,0,0,0-.21-.08.55.55,0,0,1-.11-.16.53.53,0,0,0-.24-.23.38.38,0,0,1-.17-.32q0-.16.39-.45l.17-.19c.42-.47.7-.73.86-.76l.07-.21.48-.48a2.26,2.26,0,0,1,.5-.43l.75-.73a1.33,1.33,0,0,1,.94-.38c.31,0,.48.17.5.57a1.68,1.68,0,0,1-.15.93,1.7,1.7,0,0,0-.23.62,2,2,0,0,1-.34.74,2.63,2.63,0,0,0-.37.68,3.35,3.35,0,0,1-.27.6,1.38,1.38,0,0,0-.18.68c0,.09.06.14.18.13a1.18,1.18,0,0,0,.61-.3l.13-.07a1.12,1.12,0,0,0,.28-.16l.36-.18a.54.54,0,0,1,.3-.31l.27-.16.49-.26a1,1,0,0,0,.37-.29.67.67,0,0,1,.21-.23,1.73,1.73,0,0,0,.3-.27c.26,0,.59-.26,1-.72.44-.29.84-.58,1.21-.86a5.86,5.86,0,0,0,.74-.61l.31-.18a2.4,2.4,0,0,0,.49-.35,1,1,0,0,1,.71-.27,1.12,1.12,0,0,1,.74.23.81.81,0,0,1,.39.55v.7a1.76,1.76,0,0,1-.3,1.16,3,3,0,0,1-.15.81l0,.34S94.89,272.45,94.68,272.6Zm-6.23,11.58.06-.21a.4.4,0,0,1,.19-.21,1.38,1.38,0,0,1,.35-.84,1.3,1.3,0,0,1,0-.37l.2-.2.51-1c0-.14.1-.27.16-.4a1.78,1.78,0,0,0,.14-.36,1.89,1.89,0,0,1,.43-.83v-.11c0-.13,0-.2-.1-.19a1.18,1.18,0,0,1-.28.22l-.89.84s-.16.21-.36.49l-.26.31a1.38,1.38,0,0,1-.34.33,1.1,1.1,0,0,0-.28.45c-.11.24-.2.37-.29.37h-.06l-.15-.07a.15.15,0,0,0-.08.14l.11.34a.32.32,0,0,1-.11.19,1.67,1.67,0,0,0-.18.28.34.34,0,0,1-.15.19c-.06,0-.16.21-.29.56l-.27.16a2.08,2.08,0,0,1-.46,1.42,4.34,4.34,0,0,0-.16.47,1,1,0,0,1-.11.29c0,.36-.13.58-.27.65a.08.08,0,0,0-.05.09c0,.06.05.11.14.16l.06.06a3.21,3.21,0,0,0-.14.86s0,.05.06.05l.43-.24a1.28,1.28,0,0,0,.59-.59l.21-.47a.31.31,0,0,1,.19-.13.58.58,0,0,1,.26-.41c.13-.07.19-.15.19-.25a3.9,3.9,0,0,1,.48-1A8.64,8.64,0,0,0,88.45,284.18Z" transform="translate(0 4.13)"/><path d="M111.91,258l.1-.15a.39.39,0,0,1,.29-.19,1.14,1.14,0,0,0,.35-.13l2.11-.73a6.35,6.35,0,0,1,.75-.16l.46-.17a1.18,1.18,0,0,1,.53-.12l.48-.14s.08,0,.11.11.06.1.08.1a2.47,2.47,0,0,1,.85-.5h0l.36.06c.06,0,.12,0,.18-.13l.06-.06a2.39,2.39,0,0,0,.36.13,1.74,1.74,0,0,0,.49-.12,1.7,1.7,0,0,1,.52-.12h.45l1-.12a.3.3,0,0,1,.2.08l.29-.08a3.41,3.41,0,0,1,.84.07,5.56,5.56,0,0,0,1,.11,1.17,1.17,0,0,1,.87.35l.25.07h.18a.4.4,0,0,1,.47.28,1,1,0,0,0,.37.33l.21.29a.55.55,0,0,0,0,.18q0,.09.33.18l.06,0a.86.86,0,0,0,.31.48,1.58,1.58,0,0,1,.33,1.05l0,.35.1.75a5,5,0,0,1-.34,1.89,4.38,4.38,0,0,1-.88,1.6c-.06.26-.15.4-.26.41-.32.33-.53.5-.62.5l-.09,0a1.59,1.59,0,0,1-.6.65,4.47,4.47,0,0,1-.56.34l-.65.29-.36-.07a.7.7,0,0,1-.29.24l-.75.37a7.67,7.67,0,0,1-1.27.34l-.37-.1c-.06,0-.14.08-.25.23l-.27.08a1.3,1.3,0,0,0-.58-.1.59.59,0,0,1-.33.15l-.63.13c-.08,0-.14-.06-.16-.21l-.13.05,0,.21a.29.29,0,0,1-.14,0l-.78,0-.36.11-.6-.08-.29,0-.26-.1-.23,0-.24,0-.27.08-.06,0a.58.58,0,0,1-.13.2,1.29,1.29,0,0,0-.22.32,1.19,1.19,0,0,0-.38.7.52.52,0,0,1-.49.46.93.93,0,0,1-.07.15,1,1,0,0,1,.1.25v.06c0,.23-.16.48-.52.74a3,3,0,0,1-.17.78,2.1,2.1,0,0,0-.14.39.42.42,0,0,1-.24.27l0,.09,0,.43a.86.86,0,0,1-.08.18c0,.11-.13.26-.22.46l-.08.15-.09.49a.7.7,0,0,0-.26.59l.08.83a.63.63,0,0,1-.25.47,1,1,0,0,1-.55.27c-.48,0-.82-.24-1-.81l-.1-.11a.9.9,0,0,1-.35-.72,4.24,4.24,0,0,1,.5-1.75l.86-1.79a2.43,2.43,0,0,1,.36-.28l.16,0a.1.1,0,0,0,0-.12s-.06-.15-.18-.41v-.06a.13.13,0,0,1,.09-.15l.11-.14,0-.29a2.07,2.07,0,0,0,.25-.52l.12-.35q.14-.35.21-.36a1,1,0,0,1,.3-.88l.1-.26a.22.22,0,0,1,.19-.11c.09,0,.14,0,.14-.05a.37.37,0,0,0,0-.15.3.3,0,0,1,0-.14.68.68,0,0,1,.14-.39c.1-.16.18-.24.23-.25l.22.12v-.09c-.1-.08-.16-.15-.16-.21a.57.57,0,0,1,.11-.32,2,2,0,0,0,.15-.29l.1-.16a1.27,1.27,0,0,0,.12-.41c.07-.28.17-.42.32-.42v-.14a2,2,0,0,1,.29-.72l.69-1.42a2,2,0,0,1,.2-.52l0-.35a1.81,1.81,0,0,1,.23-.75c.16-.34.3-.51.41-.52a.24.24,0,0,1,.13,0,.11.11,0,0,0,.07,0l.23-.05.49.4a.77.77,0,0,1,.25.55l.07.09a2.44,2.44,0,0,1,.42.92,2.08,2.08,0,0,1,0,.54,1.17,1.17,0,0,1-.42.46,1.91,1.91,0,0,0-.41.76,1.9,1.9,0,0,1-.26.61,2.61,2.61,0,0,0-.33.84,1.38,1.38,0,0,1-.5.83,5.32,5.32,0,0,1-.08.68v0c0,.06.05.08.12.08l.48-.09.22,0a.5.5,0,0,0,.24,0,.53.53,0,0,0,.28-.13h.09a1.57,1.57,0,0,1,.38.13l0,0c.05-.1.11-.15.17-.15l.57,0,.28,0a1.23,1.23,0,0,1,.62-.19,1.78,1.78,0,0,0,.59-.12,1.11,1.11,0,0,1,.3-.11,1.1,1.1,0,0,0,.33-.13,1,1,0,0,1,.35-.13,2.18,2.18,0,0,0,.92-.36.86.86,0,0,0,.24,0,.51.51,0,0,0,.43-.26.59.59,0,0,1,.38-.28l.87-.45a2.69,2.69,0,0,0,.48-.51l.25-.19.16-.26s.09-.08.27-.19a.28.28,0,0,1-.1-.09l.3-.38a1,1,0,0,0,0-.17v-.06a1.11,1.11,0,0,1,.28-.34c.1-.07.15-.12.15-.14l-.16-.17c.13-.14.19-.23.19-.27l-.09-.42,0-.75a2.68,2.68,0,0,0-.12-.73,1.06,1.06,0,0,1-.12-.34,2.47,2.47,0,0,0-.83-.84.11.11,0,0,1-.05-.1l0-.14v-.06l-.46.08s-.06,0-.11-.14a.23.23,0,0,0-.22-.13l-.2.1h0a1.29,1.29,0,0,1-.52-.24,1.3,1.3,0,0,0-.37,0l-.21-.08a.37.37,0,0,0-.15-.05h-.09l-.33.08h-.75l-.45-.07a.91.91,0,0,1-.31.2,1.19,1.19,0,0,1-.29-.07h0l-.44.09-.33.07h-.09a2.75,2.75,0,0,1-.75,0h-.09a.34.34,0,0,0-.25.13c-.07.07-.13.12-.18.12s-.1-.06-.16-.18a1.76,1.76,0,0,1-.27.2l-.27-.08q0,.12-.87.3l-.69.19-.12,0a5.23,5.23,0,0,1-.54.19,1.5,1.5,0,0,0-.38.15,1.48,1.48,0,0,1-.35.13,3.37,3.37,0,0,0-.55.18l-.24-.05a6.77,6.77,0,0,1-.78.43,2.48,2.48,0,0,0-.63.39.4.4,0,0,1-.24.15l-.18,0h0c-.08,0-.22.11-.41.32a2.45,2.45,0,0,1-.49.46,1.24,1.24,0,0,0-.36.44,1.16,1.16,0,0,1-.74.47.35.35,0,0,0-.06.09l0,.23a1.27,1.27,0,0,0-.4.54l-.07.15,0,.28c0,.29,0,.45-.08.47a.6.6,0,0,0-.24.14.41.41,0,0,1-.23.11c-.17,0-.33-.13-.5-.41a2.51,2.51,0,0,1-.25-.51,1.47,1.47,0,0,1,.5-1.31l1-.85a1.73,1.73,0,0,1,.89-.45.66.66,0,0,0,.23-.29.94.94,0,0,1,.58-.36l.24.08s0-.05.08-.13a.54.54,0,0,1,.17-.2.64.64,0,0,0,.2-.2l.37-.27s0,0,0,0l.22,0,.09,0a.46.46,0,0,1,.2,0s.07-.06.08-.15A.21.21,0,0,1,111.91,258Z" transform="translate(0 4.13)"/><path d="M134.29,270l.21-.22a.23.23,0,0,0,.25-.21.5.5,0,0,1,.3-.33,1.24,1.24,0,0,0,.47-.51c.14-.24.3-.37.46-.38s.13,0,.21.13a.36.36,0,0,1,.13.23,2.05,2.05,0,0,1-.23,1l0,.41-.09.19a.69.69,0,0,0-.27.27,1.1,1.1,0,0,1-.33.34l-.13.21a.64.64,0,0,0-.41.37.43.43,0,0,1-.29.28.73.73,0,0,0-.41.31,2.16,2.16,0,0,1-.34.16l0,.14a1,1,0,0,1-.45.26,3.81,3.81,0,0,0-.46.2.45.45,0,0,1-.2.09,1.26,1.26,0,0,1-.52-.07,1.4,1.4,0,0,0-.49-.11.34.34,0,0,1-.11-.19.79.79,0,0,0-.16-.26.7.7,0,0,1-.16-.45l0-.28a.23.23,0,0,0-.08-.14c-.05-.06-.08-.1-.08-.14a.09.09,0,0,1,0-.09.09.09,0,0,0,0-.09.34.34,0,0,0,0-.16.49.49,0,0,1,0-.15l0-.71q0-.09-.06-.09s-.11.06-.21.16a.51.51,0,0,1-.34.17.61.61,0,0,0-.17.37,1.06,1.06,0,0,1-.28.28l-.05.09c0,.07-.08.13-.21.19a.51.51,0,0,0-.25.18l-.14.15h-.28a2.37,2.37,0,0,0-.14.27,1.48,1.48,0,0,1-.31.39l-1.06,1-.49.32-.08.09a3.78,3.78,0,0,1-1.61.88,2.49,2.49,0,0,1-.93-.17c-.36-.12-.56-.29-.6-.49l-.18-.59a1,1,0,0,1-.17-.56.66.66,0,0,1,0-.23v-.09l0-.48c0-.12.08-.18.26-.19l0-.39a2,2,0,0,1,.23-.48,2.1,2.1,0,0,1,.31-.48l.14-.2a.46.46,0,0,1,.18-.38,2,2,0,0,0,.33-.42,1.65,1.65,0,0,1,.46-.48l.42-.47a4.4,4.4,0,0,1,1.06-.88,2.13,2.13,0,0,0,.34-.31,1.58,1.58,0,0,1,.59-.43,3.73,3.73,0,0,0,.65-.35,1,1,0,0,1,.51-.22h.11a5.57,5.57,0,0,0,.75-.41h.09a.94.94,0,0,1,.29.1h0l.22-.13.15,0c.6,0,1,.36,1.06,1.2,0,.17.09.25.17.25s.22-.19.38-.56a1.18,1.18,0,0,1,1.11-.6c.42,0,.65.23.68.77a2.52,2.52,0,0,1-.74,1.84,1.07,1.07,0,0,0-.07.27l-.17.61v0c0,.06,0,.14-.11.24a.46.46,0,0,0-.1.28l.05.37,0,.41a.55.55,0,0,0,.13.36,1.22,1.22,0,0,0,.65-.43c.13-.19.22-.3.28-.32l.14-.07A1.37,1.37,0,0,1,134.29,270Zm-4.85.29a.72.72,0,0,1,.33-.51.71.71,0,0,0,.34-.36,10.15,10.15,0,0,0,.75-.78c.32-.37.48-.59.48-.67s0,0-.06,0h0l-.12.08h-.26l-.28,0-.2-.09-.19,0-.3,0a.81.81,0,0,0-.39.12,2.66,2.66,0,0,1-.63.25,2.33,2.33,0,0,0-.83.46,1.09,1.09,0,0,1-.54.31,2.08,2.08,0,0,1-.65.67.7.7,0,0,0-.42.54,1.82,1.82,0,0,0-.36.37l-.08.26a1.12,1.12,0,0,1-.28.18.33.33,0,0,0-.19.32.86.86,0,0,1-.17.45.66.66,0,0,0-.15.32c0,.48.14.71.32.7a1.74,1.74,0,0,0,.48-.18,2.34,2.34,0,0,0,.42-.24.65.65,0,0,1,.22-.13l.27-.16a.26.26,0,0,1,.13-.08.34.34,0,0,0,.14-.11,1.22,1.22,0,0,1,.25-.19.73.73,0,0,0,.28-.27l.77-.5.3-.25a1,1,0,0,0,.37-.28A1,1,0,0,1,129.44,270.26Z" transform="translate(0 4.13)"/><path d="M138.56,266.39l.21-.07.08-.2a3.72,3.72,0,0,0,1-.86.34.34,0,0,1,.12-.12.89.89,0,0,0,.21-.22,1.76,1.76,0,0,1,1.25-.62c.58,0,.92.3,1,1l.1.21a8.08,8.08,0,0,1,.38.82,4.69,4.69,0,0,1,.26.75,1.62,1.62,0,0,1-.2.81,5.22,5.22,0,0,0-.92,1.15l-.14.11a2.27,2.27,0,0,1-.27.54c-.19.08-.28.16-.28.24l0,.26a.31.31,0,0,1-.06.12,1.72,1.72,0,0,0-.16.35l-.11.18a.6.6,0,0,0-.1.25,1,1,0,0,1-.15.34.45.45,0,0,0-.1.24c0,.15.21.2.59.18a.76.76,0,0,0,.21-.1l.21.05s.06,0,.14-.11a1,1,0,0,1,.35-.17,1.31,1.31,0,0,0,.41-.2,2.08,2.08,0,0,1,.42-.23,1.6,1.6,0,0,0,.47-.31,1.57,1.57,0,0,1,.45-.32,1.2,1.2,0,0,0,.4-.29,3.09,3.09,0,0,1,.43-.37,5.74,5.74,0,0,0,.74-.75,1.71,1.71,0,0,1,.47-.34,2.48,2.48,0,0,0,.23-.4.62.62,0,0,1,.49-.41c.21,0,.31.07.32.27a.4.4,0,0,1-.12.31v.09l.05.23a.23.23,0,0,1,0,.13s0,.1-.09.18a.68.68,0,0,0-.14.31.33.33,0,0,1-.26.26c-.05.22-.12.34-.21.38a1.2,1.2,0,0,0-.37.31,5.15,5.15,0,0,1-.66.63,6,6,0,0,0-.59.55c-.1.13-.17.2-.21.2l-.12-.05a.24.24,0,0,0-.12,0c-.06,0-.1.07-.11.21L144,272a1.13,1.13,0,0,1-.21.13l-.09,0h-.06c-.11,0-.17.05-.16.14l.09.14v0c0,.13-.06.21-.22.22a3.11,3.11,0,0,0-.9.59l-.41.12-.34.21a.57.57,0,0,0-.23-.09l-.23.08-.42.06-.55-.26a1.27,1.27,0,0,1-.65-.55,3.91,3.91,0,0,0-.3-.57,1.21,1.21,0,0,1-.19-.41,3.08,3.08,0,0,1,.06-1,2.4,2.4,0,0,0,.12-.46.7.7,0,0,1,.15-.32,1.39,1.39,0,0,0,.19-.56,7,7,0,0,1,.52-1.07,1.18,1.18,0,0,0,.22-.48l.17-.28a.58.58,0,0,0,.08-.23c0-.13.07-.21.13-.23a.82.82,0,0,0,.1-.27c0-.28-.15-.42-.4-.4-.05,0-.1,0-.15.16a.88.88,0,0,1-.39.32,1.47,1.47,0,0,0-.37.25,1.86,1.86,0,0,1-.3.2,1.06,1.06,0,0,0-.4.36l-.24.14c-.07.19-.13.29-.18.31a5.1,5.1,0,0,1-.54.18l-.13.19a.4.4,0,0,1-.33.18,3.2,3.2,0,0,0-.32.43.92.92,0,0,0-.3.13l-.29.09a2,2,0,0,0-.24.29.58.58,0,0,1-.5.23c-.15,0-.23-.11-.24-.34a1.4,1.4,0,0,1,.43-1.17,1.94,1.94,0,0,1,.71-.5.3.3,0,0,0,.28-.19.57.57,0,0,1,.27-.26,1.62,1.62,0,0,0,.5-.45,1.54,1.54,0,0,1,.62-.48Z" transform="translate(0 4.13)"/><path d="M150.38,259.56l.21-.07.13-.16h0l.14.05h0a1.35,1.35,0,0,0,.61-.17A2.71,2.71,0,0,1,152,259l.23-.1a.11.11,0,0,1,.07,0h.24c.07,0,.17-.15.28-.43a1.68,1.68,0,0,1,.41-.64,1.81,1.81,0,0,0,.45-.74,1,1,0,0,0,.12-.23c0-.11.08-.16.11-.16a.4.4,0,0,0,.33-.3c.27-.36.5-.54.69-.56s.42.21.55.67l.18.55s0,.08-.06.21a1.13,1.13,0,0,0,0,.4.86.86,0,0,1,0,.27.34.34,0,0,0,0,.15c0,.08.09.11.26.1a.91.91,0,0,0,.31-.13l.09,0a.45.45,0,0,0,.25.07,2.34,2.34,0,0,0,.41-.17,4.67,4.67,0,0,1,.48-.19,2.06,2.06,0,0,0,.34-.13l.17,0,.12,0a.63.63,0,0,0,.24-.14,1.46,1.46,0,0,1,.68-.19l.2-.1h.06c.32,0,.49.11.5.39a.57.57,0,0,1-.12.31,2.35,2.35,0,0,0-.19.51l-.62.89a1,1,0,0,1-.65.48s-.16-.13-.38-.37a.06.06,0,0,0-.06,0,.75.75,0,0,0-.31.08.78.78,0,0,1-.26.07s-.28.09-.76.27l-.34.08a1.16,1.16,0,0,0-.28.07l-.73.19a1.32,1.32,0,0,0-.56.75s0,.07-.13.14l-.59,1.24a.58.58,0,0,0-.4.4l-.05.09a.49.49,0,0,0-.28.2,2.1,2.1,0,0,1-.24.26l-.24.41c-.1.14-.19.29-.29.46a1.49,1.49,0,0,0-.2.53,1,1,0,0,1-.1.32.22.22,0,0,0,0,.16l0,.12a.53.53,0,0,0-.15.4l.07.23c-.11.48-.16.73-.16.76a.66.66,0,0,0,0,.16v.09a2.06,2.06,0,0,1-.18.81l0,.23-.05.66a3.19,3.19,0,0,0,.12.48s-.06.07-.05.09a1.37,1.37,0,0,0,.48.87,2.25,2.25,0,0,1,.52,1.5.68.68,0,0,1,0,.26,2.05,2.05,0,0,0,0,.37.61.61,0,0,1-.2.4.67.67,0,0,1-.35.21c-.52,0-.92-.32-1.22-1.06a6,6,0,0,1-.47-1.42v-.57l-.11-.28v-1.29l-.08-.31.26-1.27,0-.45a1.08,1.08,0,0,1,.19-.25s0,0-.06,0-.14.06-.23.19a1.86,1.86,0,0,1-.34.35l-.11.22-.12-.06a4.34,4.34,0,0,0-.44.72.66.66,0,0,0-.46.38.52.52,0,0,1-.46.33l-.06,0c0,.28-.15.43-.38.44l-.06,0c-.12.34-.27.5-.42.5a1,1,0,0,1-.68.65.53.53,0,0,1-.24.27,1,1,0,0,0-.23.18c-.05.05-.09.08-.13.08s-.2-.13-.22-.4a.63.63,0,0,1,.08-.26.45.45,0,0,0,.09-.2s-.06-.08-.16-.17c0-.3,0-.49.2-.58a.77.77,0,0,0,.33-.36.43.43,0,0,1,.28-.26c.14-.06.21-.13.21-.2s.11-.22.35-.44a3.53,3.53,0,0,0,.52-.56c.11-.16.2-.24.28-.25l.06-.06c0-.24.09-.37.25-.38l.14-.09,0-.12.09-.07h.12l.06-.07A.74.74,0,0,1,149,265a7.55,7.55,0,0,0,1.08-1.21,6.38,6.38,0,0,0,.86-1.26,5.57,5.57,0,0,1,.33-.73,1.89,1.89,0,0,0,.25-.86l-.09-.11-.61.35s-.1-.07-.3-.12a1.25,1.25,0,0,0-.31.28c-.06.1-.11.14-.15.15l-.21,0-.63.11a3.07,3.07,0,0,0-1.28.43l-.59.21h-.13a.7.7,0,0,0-.34.17h-.34a1.78,1.78,0,0,1-.67.29l-.17,0-1.47.49a4.47,4.47,0,0,0-.75.65l-.11,0c-.1,0-.22-.1-.36-.31a1.13,1.13,0,0,1-.24-.58c-.06-1,.74-1.57,2.38-1.83l.58-.27h0l.17.05H146a1,1,0,0,0,.27-.13,4.15,4.15,0,0,1,.83-.32l.58-.2.2,0a.64.64,0,0,0,.32-.13,1.15,1.15,0,0,1,.54-.2,2.14,2.14,0,0,0,.51-.15l.23-.07a.62.62,0,0,0,.24-.12,1.09,1.09,0,0,1,.46-.13Z" transform="translate(0 4.13)"/><path d="M157.11,265.39l.19-.38a1.57,1.57,0,0,1,.21-.28,2,2,0,0,0,.25-.74,2.15,2.15,0,0,1,.31-.81.74.74,0,0,1,.57-.26,1.43,1.43,0,0,1,.58.18,2.4,2.4,0,0,1,.78,1.23,6.21,6.21,0,0,1,.44,1.49,1.13,1.13,0,0,0,.13.43,3.84,3.84,0,0,1,.15.41,1.53,1.53,0,0,0-.1.29l.07.59-.15.49,0,.35a1.44,1.44,0,0,0-.15.38.28.28,0,0,0,.07.17,2.65,2.65,0,0,0,.8-.52.69.69,0,0,1,.27-.25,1.49,1.49,0,0,0,.44-.4l.26-.17.23-.32a.6.6,0,0,1,.23-.22,1.22,1.22,0,0,0,.32-.22,3.81,3.81,0,0,1,.53-.37l.13-.18a1.73,1.73,0,0,1,.5-.43,2.13,2.13,0,0,1,.31-.16c.07,0,.15.08.23.25a1.35,1.35,0,0,1,.14.53.67.67,0,0,1-.25.51,3.93,3.93,0,0,0-.37.38.91.91,0,0,1-.45.23,6.45,6.45,0,0,0-.44.63l-.28.19-.14.2s-.14.08-.38.14t-.06.15c0,.1-.13.17-.3.22a4.15,4.15,0,0,0-.51.57l-.3.08a.92.92,0,0,1-.13.34c-.23.08-.35.18-.37.32l-.14.07-.06,0a1.49,1.49,0,0,1-.64.36l-.33.11-.1.18c0,.05-.11.12-.35.21a1.36,1.36,0,0,0-.51.33l-.24.2a1.58,1.58,0,0,0-.55.36h-.2a1.37,1.37,0,0,0-.62.34,1.35,1.35,0,0,1-.69.34,2.27,2.27,0,0,1-1.17-.14,1.84,1.84,0,0,1-.54-.5,4.52,4.52,0,0,0-.41-.48.5.5,0,0,1-.18-.29c0-.07,0-.14.12-.22a1.17,1.17,0,0,0,.28-.43c.09-.21.36-.37.79-.45a.65.65,0,0,0,.2-.1.79.79,0,0,1,.3-.11c.1,0,.22.08.38.24t.06,0l.23,0a.54.54,0,0,0,.23.1,1.13,1.13,0,0,0,.72-.39l.05,0h.12s.07-.09.13-.26l.22-.52.47-.69v-.15a1.25,1.25,0,0,1,.07-.27v-.21c0-.09.05-.15.16-.18a.19.19,0,0,0,.17-.2l0-.11a.47.47,0,0,1-.13-.24l.13-.3-.05-.31.05-.12a1.05,1.05,0,0,1-.07-.23l0-.37-.09-.27c-.07-.17-.11-.25-.14-.25s-.24.16-.53.48a3,3,0,0,0-.52.68.75.75,0,0,1-.35.36,1,1,0,0,0-.36.37.36.36,0,0,1-.24.23l-.93.85-1,.85c-.07.09-.12.14-.14.14-.36,0-.55-.16-.57-.56a2.13,2.13,0,0,1,.17-.7l.15-.1s.05,0,.05-.05h0l.09.06h0a4.31,4.31,0,0,1,.68-.46.65.65,0,0,0,.27-.34l.59-.48a8.71,8.71,0,0,0,.67-.68A3.89,3.89,0,0,0,157.11,265.39Z" transform="translate(0 4.13)"/><path d="M173.9,264.74l.08-.08h.09c.05-.07.08-.11.08-.13a.34.34,0,0,0-.05-.11.2.2,0,0,1-.06-.11.43.43,0,0,1,.26-.44.93.93,0,0,1-.07-.35.39.39,0,0,1,.11-.27,1.26,1.26,0,0,0,.2-.52.52.52,0,0,1,.41-.45v-.06l-.06-.16a.5.5,0,0,1,.1-.27v-.14a.22.22,0,0,1,.17-.25c.13,0,.19-.07.19-.11a.64.64,0,0,1,.22-.44l-.07-.23c0-.08.07-.19.24-.34.3-.34.45-.59.44-.75v-.15q0-.13.39-.51a0,0,0,0,1,0,0l.21,0a2.92,2.92,0,0,0,.06-.44c0-.15.18-.39.52-.72l0-.11a1.74,1.74,0,0,1,.21-.3l.13,0a3,3,0,0,0,.21-.47c0-.09.08-.15.14-.16a.42.42,0,0,0,.16-.12.43.43,0,0,1,.22-.13c.11-.17.22-.35.32-.53a1.45,1.45,0,0,1,.45-.48c0-.36.11-.55.27-.56l.21,0a2.13,2.13,0,0,1,.72-.88l.52-.43H181a.74.74,0,0,0,.2-.25l.2-.16c0-.18.09-.28.24-.29h.13a1.52,1.52,0,0,1,1-.66l.23.05c.1,0,.17.08.24.2l.16.26c.05.13.09.2.13.2l.18-.19a4,4,0,0,0,1.57-.75,2,2,0,0,0,.32,0,.25.25,0,0,1,.16,0h.06a1,1,0,0,0,.21-.11.89.89,0,0,1,.2-.12h.49l.44.06.61-.06a1.38,1.38,0,0,1,.79.31.68.68,0,0,0,.37.37c.12,0,.31.28.56.77a3.49,3.49,0,0,1,.39,1v.25l0,.47,0,.34a.54.54,0,0,1-.09.37.59.59,0,0,0-.09.44,3.12,3.12,0,0,1-.29,1.21,3.18,3.18,0,0,0-.3,1c-.19.63-.35,1-.48,1l-.27.85a.82.82,0,0,1-.25.41l-.26.2.06.42c0,.09-.12.25-.37.47l-.21.53a1,1,0,0,1-.3.43,5.08,5.08,0,0,0-.62,1.12l-.25.22a7.88,7.88,0,0,0-.55.84,1.89,1.89,0,0,1-.42.56l-.2.23a.68.68,0,0,1-.32.23.26.26,0,0,1,0,.14.58.58,0,0,1-.3.52,2,2,0,0,0-.4.34l-.59.64a1,1,0,0,0-.21.27,1.76,1.76,0,0,1-.26.36l-.19.33a10.27,10.27,0,0,1-1,.72,1,1,0,0,0-.16.32l-.27.1a1,1,0,0,1-.62.61l-.14.06a.25.25,0,0,1-.13.11l-.18.11a1.77,1.77,0,0,1-.4.18l-.32.12-.14,0c0,.22-.14.33-.33.34H179a1.2,1.2,0,0,1-.26.13l-.05,0a.7.7,0,0,1-.11.22h-.45a.77.77,0,0,1-.3.13.32.32,0,0,1-.15,0l-.14.16a1,1,0,0,0-.24-.1l-.1,0a2.68,2.68,0,0,1-.51.12l-.2-.05a2,2,0,0,0-.49-.17l-.55.06s-.09-.05-.21-.17a3,3,0,0,0-.5-.36,2.08,2.08,0,0,1-.66-.83,3.18,3.18,0,0,1-.36-.85l-.14-.82,0-.25-.14-.8a1.4,1.4,0,0,1,.25-.79,1.76,1.76,0,0,1-.05-.33l0-.21v-.33a.53.53,0,0,1,.2-.42l0-.37A1.72,1.72,0,0,0,173.9,264.74Zm7.31,2.68,0-.08v-.17c0-.17.1-.27.34-.32a2.76,2.76,0,0,0,.31-.49c.08-.2.16-.3.22-.3h.14q.09,0,.09-.06l-.05-.23a3.6,3.6,0,0,1,.35-.47c.18-.21.35-.43.52-.65a5.32,5.32,0,0,0,.45-.68,4.72,4.72,0,0,1,.36-.57,2.62,2.62,0,0,0,.26-.39,1,1,0,0,1,.37-.32l0-.07v-.29s.1-.2.3-.56.5-.51.51-.69a1.3,1.3,0,0,1,.19-.53,1.4,1.4,0,0,0,.21-.43c.16-.11.24-.18.24-.22l.1-.21a3.22,3.22,0,0,0,.15-.43l.23-.25a1.26,1.26,0,0,0,.22-.58.43.43,0,0,1,.19-.37c.11-.05.16-.1.16-.14a1,1,0,0,0-.07-.17v-.07a.51.51,0,0,1,.16-.33,7.1,7.1,0,0,0,.35-.94,1.54,1.54,0,0,1,.19-.47l-.08-.39a.61.61,0,0,1,.16-.3c-.09-.28-.14-.43-.14-.45a1.19,1.19,0,0,1,.12-.43l-.05-.29.05-.19a.72.72,0,0,0-.3-.48c0-.31-.3-.44-.84-.41l-.26,0-.58,0a4.51,4.51,0,0,1-1.28.5.61.61,0,0,0-.38.25c-.13.17-.2.25-.22.25l-.15-.05h-.06q-.11,0-.12.24a.44.44,0,0,1-.25.38,4.07,4.07,0,0,0-.69.61,3.75,3.75,0,0,0-.59.75,1.67,1.67,0,0,1-.34.44.87.87,0,0,0-.27.54,1.73,1.73,0,0,1-.23.64l-.19.33v.22c0,.06-.06.13-.19.22l.07.17,0,.18,0,.24,0,.36.19.66c0,.75-.21,1.14-.77,1.17a.86.86,0,0,1-.49-.09c-.12-.07-.22-.28-.31-.63a4.86,4.86,0,0,1-.13-.66s0-.17.09-.48a2.63,2.63,0,0,1,.18-.59.43.43,0,0,0,.08-.21s0,0,0-.05a1,1,0,0,0,.37-.57,2.12,2.12,0,0,1,.25-.67,8.82,8.82,0,0,0,1-1.8c.11-.12.3-.31.57-.55a.73.73,0,0,1,.21-.36l.19-.29.32-.31a1.28,1.28,0,0,0,.33-.33,1.71,1.71,0,0,0-.73.35l-.44.39a1.3,1.3,0,0,1-.34.27.66.66,0,0,0-.25.27,2,2,0,0,1-.28.38,2.55,2.55,0,0,0-.32.41,1,1,0,0,1-.28.32c-.15,0-.25.19-.28.43a1.89,1.89,0,0,1-.24.37l-.07.26a2,2,0,0,1-.17.21,2.14,2.14,0,0,0-.25.34,2.6,2.6,0,0,1-.37.24.54.54,0,0,1,0,.2,1.59,1.59,0,0,1-.24.5,3.56,3.56,0,0,0-.33.76.73.73,0,0,1-.23.41,1.23,1.23,0,0,0-.27.57,3.23,3.23,0,0,1-.44.95,4.65,4.65,0,0,0-.35.61,2.47,2.47,0,0,1-.3.53,3.08,3.08,0,0,0-.18.61l-.22.25-.27,1.13s0,.09-.13.18a1,1,0,0,1-.2.59.62.62,0,0,1-.05.25l-.09.41-.23.29v.06l.07.14v.06a1,1,0,0,1-.13.41,1.51,1.51,0,0,0-.13.74,1.72,1.72,0,0,1-.06.6,1,1,0,0,0-.08.35,1.65,1.65,0,0,1,0,.27l.07.23,0,.46a.55.55,0,0,0,.07.13.54.54,0,0,1,.08.15l-.06.19a.09.09,0,0,0,0,.06.69.69,0,0,0,.54.67,2.36,2.36,0,0,0,.8.15,2.9,2.9,0,0,0,.84-.28,2.27,2.27,0,0,0,.78-.46,1.17,1.17,0,0,1,.4-.31,2,2,0,0,0,.38-.24c.2-.29.35-.44.46-.47a1.21,1.21,0,0,0,.48-.39l.17-.1c.1-.2.15-.3.17-.3l.2-.15q.18-.39.27-.39h.22l.06,0A1,1,0,0,1,181.21,267.42Z" transform="translate(0 4.13)"/><path d="M199.92,266.92H200l.15,0,.06,0a.52.52,0,0,1,.21-.44.68.68,0,0,1,.3-.44c.17-.11.43-.28.78-.53l.35-.34.17-.1.11-.15c.1-.14.2-.21.29-.21s.23,0,.23.15l-.11.3.09.47a.65.65,0,0,1-.16.48l-.52.63-.7.83-.38.23a1.36,1.36,0,0,0-.25.22l-.54.52a.37.37,0,0,1-.12.31l-.23,0-.11.06a1.23,1.23,0,0,1-.57.58l-.19.15a.27.27,0,0,1-.19.1l-.41,0-.27.08a.79.79,0,0,1-.33-.1,1.59,1.59,0,0,0-.41-.16,1.31,1.31,0,0,1-.55-.51,2.19,2.19,0,0,1-.38-.6.51.51,0,0,0-.08-.19.5.5,0,0,1-.07-.16,1,1,0,0,1,.11-.3v0a.57.57,0,0,0-.09-.2.94.94,0,0,1-.11-.39.75.75,0,0,0-.11-.33.3.3,0,0,0,.11-.18.51.51,0,0,0-.05-.17.35.35,0,0,1-.06-.16l.05-.72-.08-.36v-.36c0-.2-.1-.3-.28-.29a.58.58,0,0,0-.28.18l-.1,0a3.29,3.29,0,0,0-.53.34.55.55,0,0,1-.33.15.81.81,0,0,1-.32.18l-.11.09a1.75,1.75,0,0,1-.22.19,2.9,2.9,0,0,1-.52.52l-.93.9a1.75,1.75,0,0,1-.61.47c-.13,0-.18.16-.17.38,0,0-.08.12-.25.25a2.15,2.15,0,0,0-.28.34,1.46,1.46,0,0,0-.27-.16c-.13,0-.21.18-.25.5-.05.13-.21.22-.46.26a.61.61,0,0,0-.09.23l0,.06h-.15s-.08.06-.19.18a.92.92,0,0,1-.3.23c-.11.27-.21.41-.29.41a.41.41,0,0,1-.18-.05,1.25,1.25,0,0,0-.27-.08.8.8,0,0,1-.38-.34,1.09,1.09,0,0,1-.23-.52c-.07-1.08.11-1.68.52-1.8l0-.06v-.12a.27.27,0,0,1,.15-.28.88.88,0,0,0,.32-.34,1,1,0,0,1,.22-.28l.19,0s.05-.1,0-.3a.27.27,0,0,1,.06-.17.34.34,0,0,0,.08-.22,1.2,1.2,0,0,1,.18-.46,1.84,1.84,0,0,0,.18-.38l0-.06a1.27,1.27,0,0,1-.5.39c-.1,0-.24.18-.41.45l-.24,0a5.07,5.07,0,0,1-.73.55.89.89,0,0,0-.3.36.11.11,0,0,1-.09.12,1.64,1.64,0,0,0-.37.25h-.09c-.24,0-.37-.15-.39-.5l.25-.85a1.24,1.24,0,0,1,.58-.7,6.54,6.54,0,0,0,.79-.57,1.19,1.19,0,0,1,.66-.3l.09-.15a1.1,1.1,0,0,0,.63-.64c.1-.28.26-.43.46-.44a1.4,1.4,0,0,1,1.26.52,1.74,1.74,0,0,1,.48.91l0,.39a2.75,2.75,0,0,1,0,.58.73.73,0,0,0-.15.4c0,.08.05.11.15.11s.13-.05.23-.14a2,2,0,0,1,.31-.25.45.45,0,0,0,.2-.18.81.81,0,0,1,.48-.51,1.57,1.57,0,0,0,.44-.25l.14-.13.1-.22a1.45,1.45,0,0,0,.51-.36.62.62,0,0,1,.34-.21,1.15,1.15,0,0,0,.48-.29l.21-.07.2-.13a.43.43,0,0,1,.17-.08l.42-.18a1,1,0,0,1,.38-.13,1.38,1.38,0,0,1,1.21.52,1.84,1.84,0,0,1,.48.94v.26l.08.39v.06l-.07.81,0,.28a1.28,1.28,0,0,1-.24,1c-.05,0-.07.08-.06.15v.13l.33.6c.1.21.18.31.23.31l.46-.16a.56.56,0,0,0,.31-.33,1.92,1.92,0,0,0,.39-.37C199.7,267,199.79,266.92,199.92,266.92Z" transform="translate(0 4.13)"/><path d="M215.65,252.11l.23-.22h.3a.65.65,0,0,0,.41-.16.69.69,0,0,1,.28-.16.52.52,0,0,0,.25-.16.83.83,0,0,1,.44-.21A.88.88,0,0,0,218,251a.59.59,0,0,1,.29-.18,2.05,2.05,0,0,0,.37-.15l1.31-.49.16,0h.06a.52.52,0,0,0,.33-.16.63.63,0,0,1,.4-.17,1.62,1.62,0,0,0,.55-.21l.1.09a.61.61,0,0,1,.38-.29H222l.27.05a1.87,1.87,0,0,1,.59-.16l.33,0s.05,0,.09,0a.54.54,0,0,1,.31-.18h.16l.59-.18.18.05a.78.78,0,0,1,.53-.18h.15l.14,0,.27-.11a4.84,4.84,0,0,1,1.17-.15l.38,0,.38-.17.42.06.16-.06h0l.15.05h0l1-.21.12,0a.31.31,0,0,1,.17-.11l.28.06a1.19,1.19,0,0,0,.4-.19l.09.09,1-.18h.36l.32-.08a1,1,0,0,1,.74.21.76.76,0,0,1,.27.5l.09.45-.08.25v.3a.38.38,0,0,1-.2.24s0,0-.13.08a.83.83,0,0,0-.26.14,2.28,2.28,0,0,1-.85.14c-.24,0-.4-.05-.48-.2s-.15-.23-.23-.24l-.65-.23s-.08,0-.17,0H230l-.59.1-.16,0-.2.1H228l-.43.06-.31,0-.2,0a2.56,2.56,0,0,1-.61.11c-.31,0-.46.15-.45.32a.7.7,0,0,0,.15.35.65.65,0,0,1,.14.3,1.23,1.23,0,0,0-.2.4l-.19.2a5.08,5.08,0,0,1-.51.49,2.06,2.06,0,0,0-.5.61c-.09.19-.2.28-.34.29a1.76,1.76,0,0,0-.34.47l-.1.13a.19.19,0,0,0,0,.13.23.23,0,0,1-.07.18l-.11.36a3.26,3.26,0,0,0-.55.79l-.17.1-.17.21-.2,0q-.13,0-.12.18l.08.42a1.32,1.32,0,0,0-.32.53l-.15.3a1.87,1.87,0,0,0-.29.36,3.78,3.78,0,0,1-.25.64l0,.15a4.62,4.62,0,0,1-.94,1.49,2.29,2.29,0,0,0-.12.85c-.26.6-.44.88-.55.87a2.68,2.68,0,0,1-.13.92q-.12.36-.33,1.05a3.06,3.06,0,0,1-.44,1l0,.12a1.49,1.49,0,0,1-.14.24,6.75,6.75,0,0,1-.2,1.27l-.05.63-.24.84a.38.38,0,0,0,0,.18.6.6,0,0,0,.11.22.67.67,0,0,1,.06.64.63.63,0,0,0-.06.33.6.6,0,0,1-.44.63h-.12l-.3.05a1.41,1.41,0,0,1-1.14-.52,2.34,2.34,0,0,1-.6-1.57s0-.19.06-.45a3.27,3.27,0,0,0,.07-.51,1.05,1.05,0,0,1,.06-.24.78.78,0,0,0,0-.36,2.15,2.15,0,0,1,.28-1.27,7.27,7.27,0,0,0,.43-.78.21.21,0,0,1,.09-.14A1.05,1.05,0,0,1,217,263a.82.82,0,0,1,.33-.71,1.3,1.3,0,0,1,.08-.27c0-.11.13-.36.26-.76a1,1,0,0,1,.57-.73s0-.1.16-.25l-.08-.51c0-.07.07-.21.23-.4l.23-.43a.75.75,0,0,1,.35-.47.34.34,0,0,1,.18-.19s0-.16.1-.37a2.93,2.93,0,0,1,.42-.79c.22-.32.43-.66.63-1s.39-.53.57-.55a.3.3,0,0,0,.28-.32l.05-.55a2.78,2.78,0,0,0,.48-.54L222,254a.46.46,0,0,1,.14-.28,1.4,1.4,0,0,0,.22-.29,1.52,1.52,0,0,1,.34-.38,2,2,0,0,1,.8-1.09l.22-.26a2.24,2.24,0,0,1,.38-.5.72.72,0,0,0,.22-.34.57.57,0,0,1,.3-.33c.15-.08.22-.16.22-.25s-.05,0-.12,0a1.72,1.72,0,0,0-.39.11h-.12l-.26.08h-.09l-.25,0a1.43,1.43,0,0,1-.4.11l-.18.14-.32,0-.17.19-.13,0-.38,0a.77.77,0,0,0-.41.2,1.78,1.78,0,0,1-.47.13,3.69,3.69,0,0,0-.88.32,2,2,0,0,1-.5.23l-.27,0h0a.47.47,0,0,0-.33.21.72.72,0,0,1-.46.26h-.17a1.52,1.52,0,0,0-.58.21,2.13,2.13,0,0,1-.39.2h-.27a1.21,1.21,0,0,1-.29.18.75.75,0,0,0-.23.15.72.72,0,0,1-.22.15,1.22,1.22,0,0,0-.26.18.47.47,0,0,1-.24.13H216l-.17,0c-.07,0-.16.07-.25.2a.85.85,0,0,1-.29.24.79.79,0,0,0-.25.15.6.6,0,0,1-.25.13,1.36,1.36,0,0,0-.19.33,1.57,1.57,0,0,1-.31.45,1.59,1.59,0,0,0-.25.3c0,.07-.08.11-.12.11-.48,0-.73-.25-.77-.84l.26-.65a1.37,1.37,0,0,1,.87-1,3.27,3.27,0,0,0,.82-.37Z" transform="translate(0 4.13)"/><path d="M224.55,263.23l.22-.21h.09c.07,0,.17-.08.29-.24l.14-.06a1.18,1.18,0,0,1,.48-.54L226,262a.42.42,0,0,1,.16-.12,1.25,1.25,0,0,0,.33-.3.7.7,0,0,1,.38-.27.79.79,0,0,1,.23,0,.9.9,0,0,1,.33-.36,1.62,1.62,0,0,0,.4-.43l.18-.1a1.61,1.61,0,0,0,.4-.32.7.7,0,0,1,.47-.22,1.34,1.34,0,0,1,.9.38,1.14,1.14,0,0,1,.51.8l-.18,1.15c-.11.85-.27,1.29-.47,1.35l0,.31c-.13.1-.19.18-.19.24l.11.35a.45.45,0,0,1-.15.22s0,0,0,.09l0,.6c0,.11,0,.2-.19.28a.46.46,0,0,0,.1.05.56.56,0,0,1,.38-.11h.24l.3-.34a1.12,1.12,0,0,0,.28-.15,3.65,3.65,0,0,1,.6-.32l1.82-1.58c.24-.28.43-.42.57-.43s.22.08.23.27a.94.94,0,0,1-.09.54,2.59,2.59,0,0,0-.19.52,1,1,0,0,1-.22.43,1.39,1.39,0,0,0-.21.27,1.67,1.67,0,0,1-.45.43,5,5,0,0,0-.62.57,3.05,3.05,0,0,1-.42.41l-.6.49-.08.16-.26.13a2.17,2.17,0,0,0-.42.27l-.25.16a.49.49,0,0,1-.28.09.51.51,0,0,0-.33.19c-.1.11-.17.17-.23.17l-.22,0-.29.11a1.07,1.07,0,0,1-.62-.26.83.83,0,0,1-.39-.62V267l0-.2a1.71,1.71,0,0,0-.11-.29,1.36,1.36,0,0,1-.1-.27V266l0-.09a1.1,1.1,0,0,1,0-.5,1,1,0,0,0,.07-.29,2,2,0,0,1,0-.3l0-.37a.44.44,0,0,1,.13-.24l.1-.4,0-.27.13-.21a.54.54,0,0,0,.12-.32,1.06,1.06,0,0,1,.13-.43c.08-.15.12-.24.11-.27s-.06-.17-.18-.16a1,1,0,0,0-.35.25l-.27-.07s-.07.05-.15.16,0,.07-.13.09a.46.46,0,0,0-.23.23l-.12,0-.19-.08h-.06c-.1,0-.15.11-.16.33a.72.72,0,0,1-.4.33l-.32.11a.4.4,0,0,0-.21.28.84.84,0,0,1-.27.38.67.67,0,0,1-.28.19c-.28,0-.42-.13-.44-.43l.07-.69Zm5.86-7.67-.12-.56v-.09c0-.45.12-.72.42-.78.07,0,.27-.09.6-.23a1,1,0,0,1,.58.43,1.35,1.35,0,0,1,.33.69.4.4,0,0,1,0,.13,1.17,1.17,0,0,0,0,.39.63.63,0,0,1-.25.51.92.92,0,0,1-.56.25.87.87,0,0,1-.54-.26A.89.89,0,0,1,230.41,255.56Z" transform="translate(0 4.13)"/><path d="M239.48,260.75l.4-.21a1.67,1.67,0,0,0,.37-.41l.49-.39a1.7,1.7,0,0,1,.55-.33l.24.08s.07-.07.17-.2a.47.47,0,0,1,.34-.2,1.29,1.29,0,0,1,.74.35c.32.24.49.47.5.67l0,.5a4.12,4.12,0,0,0,.16.65v.12l0,.35.08.36-.12.73c0,.18.08.27.21.26a1.14,1.14,0,0,1,.4-.3l.19-.22c.08-.08.13-.12.17-.12s.09-.06.15-.15a.45.45,0,0,1,.22-.21.39.39,0,0,0,.2-.22,3.72,3.72,0,0,1,1.19-1.1s.1-.05.19-.15a.56.56,0,0,1,.21-.19l.31-.27.13.05h0a1.15,1.15,0,0,0,.23-.16.54.54,0,0,1,.28-.16,1.18,1.18,0,0,1,.93.31c.26.24.39.42.4.56l-.06.34.13.44,0,.29-.05.31a.49.49,0,0,0,.14.25c.08.1.13.17.13.21a.67.67,0,0,0-.16.25l0,.27,0,.8a.83.83,0,0,0,.21.33.89.89,0,0,1,.24-.12.91.91,0,0,0,.24-.11l.09-.06h0a.6.6,0,0,1,.18.05H250c.08,0,.12-.08.12-.23a.47.47,0,0,1,.27-.39h.35a1.37,1.37,0,0,0,.11-.25,2.11,2.11,0,0,1,.57-.66,1.51,1.51,0,0,1,.77-.47c.15,0,.23.06.24.19a2.07,2.07,0,0,1,0,.31.79.79,0,0,1,.14.35c0,.18-.14.39-.44.62a2.19,2.19,0,0,0-.67.85l-.06.06H251s-.06.08-.12.23-.15.25-.24.27a.46.46,0,0,0-.2.1l-.3.21a7,7,0,0,0-.53.63c-.31.37-.57.57-.8.58a2.28,2.28,0,0,1-.53-.12,1.27,1.27,0,0,1-.53-.29,2.94,2.94,0,0,0-.39-.34,1,1,0,0,1-.29-.76s0-.05.08-.1a.26.26,0,0,0,.07-.12c-.24-.28-.37-.48-.37-.61a.62.62,0,0,1,0-.19.68.68,0,0,0,0-.19l-.06-.51,0-.27,0-.16,0-.75c0-.11-.08-.17-.22-.16s-.09.05-.15.13a.69.69,0,0,1-.25.19.86.86,0,0,0-.3.44,1,1,0,0,0-.34.31c-.06.09-.11.14-.14.14s-.06,0-.12,0a.31.31,0,0,0-.16.28v.05l0,.12c0,.09-.07.17-.21.26a1.9,1.9,0,0,0-.5.63.56.56,0,0,0-.2,0l-.16.36a.93.93,0,0,0-.26.33l-.17.09a3.51,3.51,0,0,1-.18.34l-.08.16c-.39.52-.66.79-.83.8s-.38-.2-.64-.62a2.39,2.39,0,0,1-.41-1l0-.54a1.86,1.86,0,0,0-.14-.23V264a2.53,2.53,0,0,1,.1-.34l0-.44a.23.23,0,0,0,0-.09v-.07a2.08,2.08,0,0,1,.1-.24l-.11-.41,0-.24-.06-.51,0-.46s0-.08-.09-.15-.1-.1-.12-.1a2.32,2.32,0,0,0-.58.37,5,5,0,0,0-.65.57c-.11.13-.25.29-.44.48a1,1,0,0,0-.37.77s0,0-.06,0,0,0-.09-.05h-.06c-.05,0-.19.22-.41.66l-.06.06-.28,0c-.23,0-.33.27-.3.76,0,.09-.05.15-.17.19a.41.41,0,0,0-.27.26,2.86,2.86,0,0,1-.25.44,1.1,1.1,0,0,0-.37.24,5.38,5.38,0,0,1-.3.46c-.19.3-.3.47-.32.52a.47.47,0,0,1-.19.18c-.11.07-.16.13-.16.18l.06.24c0,.16-.13.24-.43.26q-.88.06-1-1.77a.82.82,0,0,1,.15-.47,4.23,4.23,0,0,0,.32-.64,6.63,6.63,0,0,0,.61-.84,5.53,5.53,0,0,1,.53-.75l.17-.32a.39.39,0,0,1,.05-.26.31.31,0,0,0,.06-.23c0-.15-.05-.23-.13-.22a.66.66,0,0,0-.43.16,1,1,0,0,1-.34.22.36.36,0,0,0-.24.22,1.18,1.18,0,0,0-.41.4c-.14.19-.23.32-.28.37a.68.68,0,0,0-.12.21.24.24,0,0,1-.16.14.44.44,0,0,0-.19.12.34.34,0,0,1-.27.1c-.09,0-.17-.08-.26-.25a1.33,1.33,0,0,1-.12-.32c-.05-.71.39-1.35,1.3-1.93a1.46,1.46,0,0,0,.29-.22,1,1,0,0,1,.21-.17l.06-.11a2.52,2.52,0,0,1,.84-.55h.21l1-.31c.41-.12.65.34.71,1.38v.26l.06.12a5,5,0,0,1,.48-.45,1.63,1.63,0,0,0,.35-.35A1.31,1.31,0,0,1,239.48,260.75Z" transform="translate(0 4.13)"/><path d="M254.34,260.54l.29-.26a.37.37,0,0,0,.35-.39.79.79,0,0,1,.45-.61l.16-.26a3.75,3.75,0,0,1,1.16-.64,1,1,0,0,0,.32-.29l.06,0,.23.05a2.11,2.11,0,0,0,.49-.13,1.49,1.49,0,0,1,.57-.14l.61-.07a.84.84,0,0,1,.24.07.93.93,0,0,0,.45.07.79.79,0,0,1,.61.25.83.83,0,0,1,.3.53,1.32,1.32,0,0,1-.41.94,1.79,1.79,0,0,1-.71.57,1.69,1.69,0,0,1-.36.34,1.22,1.22,0,0,0-.26.22.34.34,0,0,1-.21.15.12.12,0,0,1-.09,0,.12.12,0,0,0-.09,0q-.24,0-.48.6l-.26,0a.77.77,0,0,0-.3.37.29.29,0,0,1-.29.21c-.34.38-.57.58-.7.59l-.21-.05a.54.54,0,0,0-.1.31c0,.12-.06.19-.22.22l-.17.19-.15,0-.28.32a.93.93,0,0,0-.44.17q0,.18-.06.45c0,.19,0,.29,0,.31,0,.28.28.4.8.37l.69-.14a.93.93,0,0,0,.51-.18,1,1,0,0,1,.51-.18.92.92,0,0,0,.26-.07l.15.05a1,1,0,0,1,.36-.42.91.91,0,0,1,.42-.2l.14-.09a.44.44,0,0,1,.16-.25l.12-.11a.35.35,0,0,1,.21-.13h.2l.06,0a.71.71,0,0,1,.46-.48.53.53,0,0,0,.38-.23.35.35,0,0,1,.27-.19.54.54,0,0,0,.33-.22,2.1,2.1,0,0,1,.33-.34,2.92,2.92,0,0,0,.27-.23.24.24,0,0,1,.13-.08c.06,0,.09,0,.1.12s0,.13.07.13,0,0,0-.06a.34.34,0,0,0,0-.15v-.1a.28.28,0,0,1,.21-.3l.63-.47q0-.3.15-.36a.69.69,0,0,0,.2-.13.23.23,0,0,1,.16-.08c.13,0,.19.06.2.21l-.05.38.1.39a.45.45,0,0,1-.13.25,1.2,1.2,0,0,0-.18.48c0,.21-.09.33-.17.35h-.08a1.22,1.22,0,0,1-.4.35.45.45,0,0,0-.23.2l-.46.6a2.6,2.6,0,0,0-.23.28c-.07.08-.12.12-.16.12l-.12-.11s0,0-.06,0-.16.07-.17.18a.71.71,0,0,1-.14.32,1.71,1.71,0,0,0-.55.41l-.08,0h-.26c-.13,0-.21.11-.25.3a.46.46,0,0,1-.39.36.9.9,0,0,0-.48.2l-.13.07a2.09,2.09,0,0,0-.4.25l-1.19.51a.55.55,0,0,1-.19.09l-.41.08c-.05,0-.11,0-.18-.1s-.1-.11-.12-.11l-.26.1a1.88,1.88,0,0,1-.55.12.64.64,0,0,1-.33-.08l-.28-.13c-.28,0-.5-.19-.64-.62l-.17,0a4.66,4.66,0,0,1-.46-1,.43.43,0,0,0-.29-.15.27.27,0,0,1-.2-.28,1.1,1.1,0,0,1,.23-.9c.18-.16.28-.28.29-.36l.16-.77a.71.71,0,0,0,.13-.3l.3-.63Zm3-1.06-.17.1a2.3,2.3,0,0,0-.33.28,3.4,3.4,0,0,1-.53.39,1.55,1.55,0,0,0-.51.76,3.48,3.48,0,0,0-.25.69.09.09,0,0,0,.1.08l.48-.25a2.48,2.48,0,0,0,.5-.37,7.09,7.09,0,0,1,.66-.53l.11-.13a.94.94,0,0,1,.26-.22A2.16,2.16,0,0,0,258,260l.14-.07a1.07,1.07,0,0,1,.47-.51c.17-.07.25-.14.25-.19s-.11-.17-.29-.16a.75.75,0,0,0-.34.16l-.34,0a1.31,1.31,0,0,0-.31.2Z" transform="translate(0 4.13)"/><path d="M271.64,264.47l-.23-.55a.78.78,0,0,1,.1-.26c-.1-.07-.16-.12-.16-.16a1.28,1.28,0,0,1,.09-.4.39.39,0,0,1-.13-.23l.07-.31a.68.68,0,0,1,.21-.42l0-.09c-.09-.06-.13-.11-.13-.16a1.55,1.55,0,0,1,.13-.3v-.2a.61.61,0,0,1,.34-.51,1,1,0,0,1,.24-.9,1.58,1.58,0,0,0,.42-.5,9.76,9.76,0,0,1,.57-1c.18-.13.37-.25.55-.36.06-.26.14-.41.25-.46a1.51,1.51,0,0,0,.48-.5,1.14,1.14,0,0,1,.78-.49l.15-.07a.85.85,0,0,1,.38-.48,2.85,2.85,0,0,1,.57-.37,1.58,1.58,0,0,0,.43-.26,2.05,2.05,0,0,1,.42-.29l.23-.13a1.91,1.91,0,0,0,.26-.28l.11,0h.12a.75.75,0,0,0,.36-.15c.15-.1.22-.19.21-.28l-.19.13h-.1l-.52.22-.72.13a.73.73,0,0,0-.36-.17c-.45-.07-.69-.41-.73-1a1.57,1.57,0,0,1,.23-1,2,2,0,0,0,.35-.71,1.73,1.73,0,0,1,.36-.66,1.33,1.33,0,0,0,.3-.47s.05-.09.16-.16a.46.46,0,0,0,.24-.29,1.24,1.24,0,0,1,.48-.47c-.05-.07.18-.3.7-.7a.79.79,0,0,0,.14-.24c.05-.11.08-.17.1-.17a.84.84,0,0,0,.56-.33L280,248a2.06,2.06,0,0,1,.63-.46c.1-.26.22-.4.37-.41l.21.08h.06a1.56,1.56,0,0,0,.27-.29,2,2,0,0,1,.43-.41l.4.09v-.06s0-.06,0-.12l.58-.4h.29a1.38,1.38,0,0,1,.8-.34l.21,0a.78.78,0,0,1,.53-.2.53.53,0,0,1,.18.07c.08.05.14.08.18.07a.28.28,0,0,0,.13,0,.19.19,0,0,1,.11,0,.5.5,0,0,1,.37.12.54.54,0,0,0,.38.14c.15,0,.3.16.46.46a2.32,2.32,0,0,1,.27.89v.31l0,.23a1.81,1.81,0,0,0-.18.62,1.12,1.12,0,0,1-.2.57l-.09.4a1.33,1.33,0,0,0-.25.31l0,0q0,.45-.33.48h-.12a.59.59,0,0,1-.57-.28,1.12,1.12,0,0,1-.23-.53.8.8,0,0,1,.27-.6.91.91,0,0,1,.6-.3l.06,0a.32.32,0,0,1,0-.17c0-.08,0-.14.13-.18l.1-.08a1.07,1.07,0,0,1,.07-.25.51.51,0,0,0,.05-.2,1.49,1.49,0,0,0-.22-.55c-.14-.24-.27-.36-.37-.35a.19.19,0,0,0-.12,0l-.09,0h-.25a3,3,0,0,0-1.34.59l-.17.07-.33,0s-.06,0-.11.15a.81.81,0,0,0-.35.36,1.26,1.26,0,0,1-.49.45,1.56,1.56,0,0,0-.44.29l-.25.11a.57.57,0,0,0-.29.27,3.11,3.11,0,0,1-.6.63,4.53,4.53,0,0,0-.7.9l-.18.13-.35.54a2,2,0,0,1-.66,1s-.13.22-.28.65a2,2,0,0,1-.32.72c-.07,0-.1.08-.1.12a.24.24,0,0,0,0,.11,2,2,0,0,0,.46-.24.77.77,0,0,1,.28-.14.91.91,0,0,0,.34-.19h.09a.48.48,0,0,0,.29-.19h.21a.8.8,0,0,1,.32-.24l.68-.41a6.43,6.43,0,0,1,1.05-.5l1.08-.38a3.94,3.94,0,0,1,.57-.16q.81,0,.84.36a1.74,1.74,0,0,1-.57,1.36c-.41.42-.66.63-.76.63h-.23l-1,.31a.59.59,0,0,0-.25.13l-1.1.7-.49.41-.26.09a1.47,1.47,0,0,1-.63.47l-.24.08c-.15.39-.3.59-.43.6a.5.5,0,0,1-.23-.11.23.23,0,0,0-.05.12,2,2,0,0,1-.22.38.88.88,0,0,1-.33.34l-.27.12c0,.35-.1.53-.24.54h-.27l0,.19c0,.1-.07.18-.22.26a.81.81,0,0,0-.26.19s-.05.08-.09.08l-.21-.1,0,.06a.41.41,0,0,1,.07.18.36.36,0,0,1-.09.18,2.42,2.42,0,0,0-.24.47l-.2.1a4.51,4.51,0,0,1-.24.5c-.08,0-.15.08-.21.22a2.15,2.15,0,0,0-.14.45.45.45,0,0,1-.22.35,2.34,2.34,0,0,0-.24.52,2.56,2.56,0,0,0-.14.75,1.63,1.63,0,0,1-.19.71.05.05,0,0,1,0,.05v.4a2.33,2.33,0,0,1,.12.31c.08.2.16.31.26.34a.43.43,0,0,1,.24.17,1.9,1.9,0,0,1,.34.07l.14-.1a.42.42,0,0,1,.26.08h.06l.25-.07.15.05a.6.6,0,0,0,.28-.14s0,0,0,0l.21.11a1.41,1.41,0,0,1,.42-.22.28.28,0,0,0,.21-.16c.05-.09.11-.14.18-.14a.5.5,0,0,1,.18.08h0s.07,0,.14-.11a.76.76,0,0,1,.32-.19,1,1,0,0,0,.32-.17,2.22,2.22,0,0,1,.39-.25.84.84,0,0,0,.44-.22l.14-.07a.36.36,0,0,0,.22-.19,4,4,0,0,1,.73-.64l.29-.25a4.56,4.56,0,0,1,.89-.68,1.27,1.27,0,0,0,.59-.55l.11-.19c.38-.06.6-.18.66-.37a1.16,1.16,0,0,1,.46-.35c0-.17.06-.26.07-.29l.25-.07.05-.06c0-.24.09-.37.18-.41a1.49,1.49,0,0,0,.39-.3,3.68,3.68,0,0,1,.46-.38l.68-.74a1.73,1.73,0,0,1,.26-.23c0-.08.09-.15.22-.2l.15-.16a.51.51,0,0,1,.15-.15,1.65,1.65,0,0,0,.37-.4.75.75,0,0,1,.57-.35c.06,0,.09,0,.09.08a1.93,1.93,0,0,1-.23,1.31q-.28.33-1,1s-.08.07-.18.23-.18.24-.26.26a2.27,2.27,0,0,0-.19.28c-.1.15-.18.23-.26.23s-.19.12-.32.33l-.33.25-.26.33a.78.78,0,0,1-.21.12.22.22,0,0,0-.14.17.47.47,0,0,1-.2.26,5.1,5.1,0,0,0-.5.49l-.58.59a1.37,1.37,0,0,1-.29.24l-.59.66a.6.6,0,0,1-.5.31h-.23l-.15-.1-.09,0c-.09,0-.13,0-.13.07l.05.38a.24.24,0,0,1-.14.06l-.09,0a2.06,2.06,0,0,1-.5.67l-.35.3a.29.29,0,0,1-.16.08,1,1,0,0,0-.25.15,1.79,1.79,0,0,1-.4.24,2.48,2.48,0,0,0-.44.24.89.89,0,0,1-.19.11.62.62,0,0,1-.3-.1,1.5,1.5,0,0,0-.24.42c0,.13-.1.2-.17.21a4.22,4.22,0,0,0-.73.27,2.5,2.5,0,0,0-.73.38l-.37-.06a.91.91,0,0,1-.44.14l-.27,0-.3.11-1.26-.5c-.12-.05-.19-.09-.21-.13a.1.1,0,0,0-.09-.06,1.32,1.32,0,0,1-.67-.51,1.05,1.05,0,0,0-.42-.44Z" transform="translate(0 4.13)"/><path d="M287.66,258.19l0-.11a.6.6,0,0,0,.6-.44l.06-.06a2.09,2.09,0,0,0,.73-.45,2.17,2.17,0,0,1,.79-.46l.61-.23a2.49,2.49,0,0,1,.54.23,1.06,1.06,0,0,1,.51,1,1.81,1.81,0,0,1-.23,1l0,.45,0,.12a.49.49,0,0,0-.22.41v.12l.06.42-.36.91c-.16.09-.24.16-.23.22s0,.09.13.13a.27.27,0,0,1,.14.22,4.85,4.85,0,0,1,0,.61l.06,0h0a.38.38,0,0,1,.23-.19l.14-.11a.45.45,0,0,1,.08-.24h.18c.08,0,.11-.09.1-.24a3.81,3.81,0,0,1,.6-.79c.4-.47.64-.77.73-.9a1.52,1.52,0,0,1,.28-.33.45.45,0,0,0,.17-.27.54.54,0,0,1,.15-.26,1.64,1.64,0,0,0,.22-.25.75.75,0,0,1,.23-.24,1.54,1.54,0,0,0,.31-.37,4,4,0,0,1,.66-.75.94.94,0,0,0,.19-.27,1.32,1.32,0,0,1,.41-.41,3.94,3.94,0,0,0,.57-.52,1.29,1.29,0,0,1,1-.34,1.1,1.1,0,0,1,.79.32,1.08,1.08,0,0,1,.41.74.58.58,0,0,1-.05.32l-.22.39c-.1.18-.2.27-.3.28l-.26-.07a.8.8,0,0,1-.55.31l-.29,0a.84.84,0,0,1-.41.21.4.4,0,0,0-.26.19.34.34,0,0,1-.23.2.68.68,0,0,0-.28.16l-.22.13a1,1,0,0,1-.6.58,2.25,2.25,0,0,0-.3.42s0,.07-.13.13a.91.91,0,0,0-.27.28c-.08.13-.16.2-.22.2h-.13a.93.93,0,0,0-.15.42c0,.19-.18.32-.46.41a.7.7,0,0,0-.16.22.72.72,0,0,1-.32.3.94.94,0,0,1-.34.57l-.16.31a.73.73,0,0,1-.27.3,1.64,1.64,0,0,0-.21.19s-.07.15-.17.39a.94.94,0,0,1-.36.49,1.15,1.15,0,0,0-.39.35.57.57,0,0,1-.34.25c-.34,0-.72-.24-1.14-.77a1.85,1.85,0,0,1-.5-2.3,3,3,0,0,0,.22-.89,3,3,0,0,1,.11-.73l.06-.46.11-.21a1.18,1.18,0,0,0,.15-.41l.06-.24c0-.17-.07-.26-.18-.25a.4.4,0,0,0-.33.28l-.06.07-.38-.07c-.07,0-.12.16-.16.47,0,.1-.13.16-.29.2s-.31.21-.48.5l-.07.06-.17.07c-.12.23-.21.35-.27.35s-.12,0-.19-.15a.66.66,0,0,0-.26-.24.29.29,0,0,1-.16-.21c0-.23.19-.53.61-.9a.56.56,0,0,0,.16-.23c0-.07.14-.12.38-.16A.94.94,0,0,0,287.66,258.19Z" transform="translate(0 4.13)"/><path d="M299.25,257.83l.29-.26a.38.38,0,0,0,.36-.39.75.75,0,0,1,.44-.61l.16-.26a3.89,3.89,0,0,1,1.16-.64,1.18,1.18,0,0,0,.32-.29.09.09,0,0,1,.06,0l.24,0a1.44,1.44,0,0,0,.48-.13,1.68,1.68,0,0,1,.57-.13l.61-.07a.76.76,0,0,1,.24.07,1.07,1.07,0,0,0,.45.06.82.82,0,0,1,.61.26.84.84,0,0,1,.3.52,1.35,1.35,0,0,1-.41,1,1.79,1.79,0,0,1-.71.57,1.48,1.48,0,0,1-.36.34,1,1,0,0,0-.25.22c-.09.1-.16.15-.22.15a.12.12,0,0,1-.09,0,.09.09,0,0,0-.09,0c-.16,0-.31.21-.48.6l-.26,0a.77.77,0,0,0-.3.37.29.29,0,0,1-.29.21c-.34.38-.57.58-.7.58l-.21,0a.45.45,0,0,0-.09.31c0,.12-.07.19-.22.22l-.18.19-.15,0-.27.32a.78.78,0,0,0-.44.17c0,.12,0,.27-.07.45s0,.28,0,.3c0,.29.29.41.8.38l.7-.14a1.08,1.08,0,0,0,.51-.18.92.92,0,0,1,.5-.18.92.92,0,0,0,.26-.07l.15.05a1,1,0,0,1,.36-.42.93.93,0,0,1,.43-.2l.14-.1a.34.34,0,0,1,.16-.24l.11-.11a.31.31,0,0,1,.21-.13h.2l.06,0a.71.71,0,0,1,.46-.48c.21-.06.33-.13.38-.23a.36.36,0,0,1,.28-.2.54.54,0,0,0,.33-.21,1.68,1.68,0,0,1,.32-.34,2.92,2.92,0,0,0,.27-.23.23.23,0,0,1,.14-.08q.09,0,.09.12c0,.09,0,.13.07.13s.06,0,.05-.06a.49.49,0,0,0,0-.15v-.1a.29.29,0,0,1,.21-.31l.64-.46c0-.2.05-.33.14-.37a.54.54,0,0,0,.21-.13.21.21,0,0,1,.15-.07q.19,0,.21.21l0,.38.09.39a.49.49,0,0,1-.12.25,1.07,1.07,0,0,0-.19.48c0,.21-.09.33-.16.35h-.09a1.36,1.36,0,0,1-.4.35.5.5,0,0,0-.23.2l-.46.6-.23.27c-.07.09-.12.13-.16.13l-.12-.11s0,0-.06,0-.15.06-.17.18a.62.62,0,0,1-.14.32,1.54,1.54,0,0,0-.54.41l-.09,0-.26,0c-.13,0-.21.11-.25.3a.43.43,0,0,1-.39.35,1,1,0,0,0-.48.21.31.31,0,0,1-.13.06,2.05,2.05,0,0,0-.39.26l-1.2.51a.55.55,0,0,1-.19.09l-.4.08a.27.27,0,0,1-.19-.1c-.06-.08-.1-.12-.12-.11l-.26.1a1.88,1.88,0,0,1-.55.12.6.6,0,0,1-.32-.08,2.06,2.06,0,0,0-.29-.13c-.28,0-.49-.19-.64-.62l-.17,0a4.66,4.66,0,0,1-.46-1,.43.43,0,0,0-.28-.15.27.27,0,0,1-.21-.28,1.09,1.09,0,0,1,.23-.9c.18-.16.28-.28.29-.36l.16-.77a.71.71,0,0,0,.13-.3l.3-.63Zm3-1.06-.17.1a2.71,2.71,0,0,0-.33.27,3,3,0,0,1-.53.4,1.69,1.69,0,0,0-.51.76,2.6,2.6,0,0,0-.24.69c0,.05,0,.08.09.08l.48-.25a2.23,2.23,0,0,0,.5-.37q.23-.21.66-.54l.11-.12a.9.9,0,0,1,.26-.23,1.52,1.52,0,0,0,.34-.32l.14-.06a1,1,0,0,1,.47-.51c.17-.07.25-.14.25-.2s-.1-.17-.29-.15a.75.75,0,0,0-.34.16l-.34,0a1.17,1.17,0,0,0-.31.2Z" transform="translate(0 4.13)"/><path d="M309.62,256.06l.21-.07.08-.19a3.72,3.72,0,0,0,1-.87.34.34,0,0,1,.12-.12.74.74,0,0,0,.21-.22,1.75,1.75,0,0,1,1.25-.61c.58,0,.92.3,1,1l.1.22a6.71,6.71,0,0,1,.38.81,3.48,3.48,0,0,1,.25.76,1.42,1.42,0,0,1-.2.8,6,6,0,0,0-.91,1.15l-.14.11a2.33,2.33,0,0,1-.27.55c-.19.08-.28.16-.28.23l0,.27a.31.31,0,0,1-.06.12,1.57,1.57,0,0,0-.16.34l-.11.19a.55.55,0,0,0-.1.24,1,1,0,0,1-.15.34.45.45,0,0,0-.1.24c0,.15.21.21.59.19l.21-.1.21,0s.06,0,.14-.1a.89.89,0,0,1,.34-.18,1.36,1.36,0,0,0,.42-.2,2.33,2.33,0,0,1,.42-.23,1.42,1.42,0,0,0,.47-.31,1.52,1.52,0,0,1,.45-.31,1.4,1.4,0,0,0,.4-.3,4,4,0,0,1,.43-.37,6.45,6.45,0,0,0,.74-.75,1.75,1.75,0,0,1,.46-.33,1.87,1.87,0,0,0,.24-.4c.13-.27.3-.41.49-.42a.28.28,0,0,1,.33.27.49.49,0,0,1-.13.32v.08l.05.24a.21.21,0,0,1,0,.13s0,.09-.1.18a.68.68,0,0,0-.13.31c0,.12-.11.2-.26.25,0,.22-.12.35-.21.38a1.13,1.13,0,0,0-.37.32,6,6,0,0,1-.66.62,4.83,4.83,0,0,0-.59.56c-.1.12-.18.19-.21.19a.3.3,0,0,1-.13-.05l-.11-.05c-.06,0-.1.07-.11.21l-.05.15a.72.72,0,0,1-.21.13l-.09,0h-.06c-.11,0-.17.05-.16.14l.09.14v0c0,.14-.06.21-.22.22a3.38,3.38,0,0,0-.9.59l-.41.12-.34.21a.8.8,0,0,0-.23-.09l-.23.09-.42.05-.55-.26a1.22,1.22,0,0,1-.65-.54,4.6,4.6,0,0,0-.3-.58,1.28,1.28,0,0,1-.19-.4,3.12,3.12,0,0,1,.06-1q.09-.3.12-.45a.68.68,0,0,1,.15-.33,1.33,1.33,0,0,0,.19-.56,7.54,7.54,0,0,1,.52-1.07,1.33,1.33,0,0,0,.22-.48l.17-.27a.67.67,0,0,0,.08-.23c0-.14.07-.22.13-.24a.82.82,0,0,0,.1-.27c0-.28-.15-.42-.4-.4-.05,0-.1.06-.15.16a.89.89,0,0,1-.39.33,1.93,1.93,0,0,0-.37.24,1.37,1.37,0,0,1-.3.2,1.08,1.08,0,0,0-.4.37l-.24.13c-.07.19-.13.29-.19.32l-.53.18a.79.79,0,0,0-.13.18.4.4,0,0,1-.33.18,4,4,0,0,0-.32.43,1.06,1.06,0,0,0-.3.14l-.29.09a1.59,1.59,0,0,0-.24.29.61.61,0,0,1-.5.22c-.15,0-.23-.1-.24-.34a1.42,1.42,0,0,1,.43-1.17,1.87,1.87,0,0,1,.71-.49.34.34,0,0,0,.28-.19.46.46,0,0,1,.27-.26,1.68,1.68,0,0,0,.5-.46,1.54,1.54,0,0,1,.62-.48Z" transform="translate(0 4.13)"/><path d="M328.71,258.47v.16l0,.11v.06s0,.13,0,.34a1,1,0,0,0-.21.67l-.16.27a.38.38,0,0,1-.12.33,1,1,0,0,0-.21.49c-.06.23-.12.49-.2.75l-.29.85a.05.05,0,0,0,.06.06l.1,0a.19.19,0,0,1,.12,0,.25.25,0,0,1,.12,0l.09,0,.2-.12a1.13,1.13,0,0,1,.41-.16l.53-.16a2.66,2.66,0,0,1,.72-.1l.45-.06a2.42,2.42,0,0,1,1.1.21,1.46,1.46,0,0,1,.72.54,2.39,2.39,0,0,1,.2,1c0,.36-.09.54-.33.56a1,1,0,0,1-.58-.24,1.47,1.47,0,0,1-.52-.68c-.1-.27-.25-.4-.44-.39l-.38-.1-.2.07h0a.83.83,0,0,1-.27-.08h-.05l-.43.14-.6,0-.26.16a2,2,0,0,1-.45.11,1.4,1.4,0,0,0-.42.15c-.12.06-.18.12-.18.17a1,1,0,0,1-.35.8.94.94,0,0,0-.13.38.63.63,0,0,1-.15.31,2.16,2.16,0,0,0-.3.54l-.11.21a.24.24,0,0,0,0,.15.49.49,0,0,0,0,.12v.13a1,1,0,0,1-.44.8v.14c0,.08-.06.2-.21.35l.08.29a.58.58,0,0,1-.15.25,2,2,0,0,0-.25.43.91.91,0,0,1-.39.42V269l.1.17s0,0,0,.06-.06.17-.2.32a1.72,1.72,0,0,1-.17.46l-.55.84a.58.58,0,0,0-.13.33l-.09.28a1,1,0,0,0-.21.28,2.74,2.74,0,0,1-.35.57c-.2.29-.33.43-.4.44a.4.4,0,0,1-.11.63c-.25,0-.37.08-.37.19l.09.29s0,.1-.15.18a.46.46,0,0,1-.25.13h-.21l.08.26a.37.37,0,0,1-.16.23,2,2,0,0,0-.37.37,1.9,1.9,0,0,1-.36.36l-.19.13-.56.09a4.77,4.77,0,0,1-.93-.42c-.46-.25-.73-.49-.8-.72a4.25,4.25,0,0,1-.16-1,.52.52,0,0,1,.13-.25l0-.12v-.28a3.12,3.12,0,0,1,.11-.53c.08-.33.15-.51.22-.55a1.59,1.59,0,0,0,.28-.6,3.47,3.47,0,0,1,.3-.7l1.22-2a.39.39,0,0,1,0-.25h.09a.16.16,0,0,0,.16-.09.72.72,0,0,1,.12-.19.54.54,0,0,1,.22-.47,1,1,0,0,0,.35-.41,2.3,2.3,0,0,1,.23-.4l0-.09a.93.93,0,0,1,.25-.15.31.31,0,0,0,.21-.24l.47-.51a1.83,1.83,0,0,1,.22-.16,1.18,1.18,0,0,0,.32-.34l.1-.05h.09l.06,0c.1-.26.21-.4.33-.43a.45.45,0,0,0,.23-.1c0-.3.14-.46.49-.48a.27.27,0,0,0,.17-.07l.33-.3a2.11,2.11,0,0,0,.25-.59v0l.27.06,0-.07-.08-.32a2,2,0,0,0,.15-.41.76.76,0,0,1,.22-.42c.08,0,.11-.09.11-.14v-.17l0-.17.05-.13v-.19l0-.05a1.87,1.87,0,0,0,.14-.56l.15-.12.55-1.89q0-.07.06-.39l.11-.16a2.71,2.71,0,0,0,.14-.61s0-.06-.06-.06-.13.07-.26.19-.22.18-.29.18l-.24,0h-.06c-.06,0-.13.06-.23.16s-.15.16-.17.16l-.18,0c-.08.17-.17.27-.24.29l-.35.26h0l-.22-.14s0,0-.07,0-.09.12-.16.36l-.43.25-.18,0c-.1,0-.19.1-.26.29a.45.45,0,0,1-.34.31.86.86,0,0,1-.52.24l-.83.65a.56.56,0,0,0-.2.16.82.82,0,0,0-.54.37H321a.38.38,0,0,0-.27.21.41.41,0,0,1-.28.21h-.09l-.17,0-.48.15a1.22,1.22,0,0,1-.64-.28c-.3-.19-.45-.36-.46-.52l-.13-.65a1,1,0,0,1,.11-.21.64.64,0,0,0,.1-.25.31.31,0,0,0,0-.12v-.12a2.59,2.59,0,0,1,.29-1.24V258s0-.06-.09-.06-.23.12-.3.34a1,1,0,0,1-.28.46,1.78,1.78,0,0,0-.24.24c-.05.06-.09.09-.13.09a.65.65,0,0,0-.21-.07s-.05-.08-.11-.17a.54.54,0,0,0-.24-.23.37.37,0,0,1-.17-.32c0-.11.13-.26.4-.45l.16-.18a2.73,2.73,0,0,1,.86-.77l.07-.21.48-.48a2.28,2.28,0,0,1,.51-.43l.74-.73a1.33,1.33,0,0,1,.94-.38q.46,0,.51.57a1.73,1.73,0,0,1-.16.94,1.86,1.86,0,0,0-.23.61,1.83,1.83,0,0,1-.34.74,3.22,3.22,0,0,0-.37.68,3.59,3.59,0,0,1-.26.6,1.31,1.31,0,0,0-.19.68c0,.1.07.14.19.13a1.21,1.21,0,0,0,.61-.3l.12-.06a1.69,1.69,0,0,0,.29-.17l.35-.18a.53.53,0,0,1,.31-.31l.27-.16.49-.26a1,1,0,0,0,.37-.29.66.66,0,0,1,.21-.23,1.73,1.73,0,0,0,.3-.27,1.92,1.92,0,0,0,1-.72c.43-.29.83-.58,1.21-.86a8.64,8.64,0,0,0,.74-.6,1.15,1.15,0,0,1,.3-.18,2.63,2.63,0,0,0,.49-.36,1.16,1.16,0,0,1,.71-.27,1.08,1.08,0,0,1,.74.24.74.74,0,0,1,.39.54v.7a1.8,1.8,0,0,1-.29,1.16,2.88,2.88,0,0,1-.16.81l.05.34C329,258.22,328.91,258.32,328.71,258.47Zm-6.24,11.59.06-.21a.44.44,0,0,1,.2-.22,1.44,1.44,0,0,1,.34-.84,1.15,1.15,0,0,1,0-.37l.19-.2.51-1a3,3,0,0,1,.17-.4,2.05,2.05,0,0,0,.13-.37,2,2,0,0,1,.44-.83v-.1c0-.14,0-.21-.1-.2a1,1,0,0,1-.28.22l-.88.84a5.91,5.91,0,0,0-.37.49l-.26.31a1.77,1.77,0,0,1-.33.34,1,1,0,0,0-.29.44c-.1.24-.2.37-.29.37h-.06l-.15-.07a.17.17,0,0,0-.08.14l.11.35s0,.1-.1.19a.75.75,0,0,0-.18.28c-.05.1-.1.16-.16.18s-.15.21-.29.56l-.27.16a2.07,2.07,0,0,1-.45,1.42,3.27,3.27,0,0,0-.16.47.68.68,0,0,1-.12.29c0,.37-.12.58-.27.65a.11.11,0,0,0,0,.09c0,.06,0,.11.14.17l.06,0a2.76,2.76,0,0,0-.13.86s0,.06.06.05L320,274a1.31,1.31,0,0,0,.6-.59l.2-.47a.34.34,0,0,1,.2-.13.57.57,0,0,1,.26-.41c.13-.06.19-.15.18-.24a4.22,4.22,0,0,1,.49-1A7.61,7.61,0,0,0,322.47,270.06Z" transform="translate(0 4.13)"/><path d="M335.06,248.41l.2-.07.14-.15h0l.14,0h0a1.36,1.36,0,0,0,.62-.17,2.71,2.71,0,0,1,.44-.23,1.11,1.11,0,0,0,.23-.1.11.11,0,0,1,.07,0h.23c.08,0,.18-.15.29-.43a1.56,1.56,0,0,1,.41-.63,1.94,1.94,0,0,0,.45-.75,1,1,0,0,0,.12-.23c0-.11.08-.16.11-.16s.25-.11.33-.3c.27-.36.5-.54.68-.55s.43.2.56.66l.18.55s0,.08-.06.21a.94.94,0,0,0-.05.4.86.86,0,0,1,0,.27.34.34,0,0,0,0,.15c0,.08.09.11.26.1a1,1,0,0,0,.31-.13l.09,0a.45.45,0,0,0,.25.07,2.77,2.77,0,0,0,.41-.17,4.67,4.67,0,0,1,.48-.19,2.06,2.06,0,0,0,.34-.13h.17l.12,0a.63.63,0,0,0,.24-.14,1.46,1.46,0,0,1,.68-.19l.2-.1h.06c.32,0,.49.11.5.39a.57.57,0,0,1-.12.31,2.07,2.07,0,0,0-.19.51l-.62.89a1,1,0,0,1-.65.48s-.17-.12-.39-.37t-.06,0a1,1,0,0,0-.3.08.78.78,0,0,1-.26.07s-.28.09-.76.27l-.34.08a1.16,1.16,0,0,0-.28.07l-.73.19a1.32,1.32,0,0,0-.56.75s0,.07-.14.14l-.58,1.24a.58.58,0,0,0-.4.4l-.05.09a.61.61,0,0,0-.29.2,1.21,1.21,0,0,1-.23.26l-.24.41c-.1.14-.19.3-.29.46a1.73,1.73,0,0,0-.21.53,1.07,1.07,0,0,1-.09.32.22.22,0,0,0,0,.16l0,.12a.58.58,0,0,0-.16.4l.08.24c-.11.47-.16.72-.16.75a.66.66,0,0,0,0,.16v.09a2.06,2.06,0,0,1-.18.81l0,.23-.05.67a3.51,3.51,0,0,0,.12.47s-.06.07-.05.09a1.35,1.35,0,0,0,.48.87,2.25,2.25,0,0,1,.52,1.5.66.66,0,0,1,0,.26,2.05,2.05,0,0,0,0,.37.58.58,0,0,1-.21.4.62.62,0,0,1-.34.21c-.52,0-.93-.32-1.22-1.06a6,6,0,0,1-.47-1.42v-.57l-.1-.28v-1.29l-.08-.3.26-1.28,0-.45s.06-.1.19-.25a.1.1,0,0,0-.07,0c-.05,0-.13.07-.22.19a2.25,2.25,0,0,1-.34.36l-.11.21a.23.23,0,0,0-.12,0,3.08,3.08,0,0,0-.44.71.66.66,0,0,0-.46.38.52.52,0,0,1-.46.33l-.06,0c0,.28-.15.43-.38.44l-.06,0q-.19.51-.42.51a1,1,0,0,1-.68.64.53.53,0,0,1-.24.27,1,1,0,0,0-.23.18c-.05.05-.09.08-.13.08s-.2-.12-.22-.4a.63.63,0,0,1,.08-.26.45.45,0,0,0,.09-.2s-.06-.08-.16-.17c0-.3.05-.49.2-.58A.77.77,0,0,0,331,257a.43.43,0,0,1,.28-.26c.14-.06.21-.13.2-.2s.12-.22.36-.44a3.14,3.14,0,0,0,.52-.56c.11-.16.2-.24.28-.24l.05-.07c0-.24.09-.37.26-.38l.14-.09,0-.12.09-.07h.11l.07-.07a.74.74,0,0,1,.31-.59,7.55,7.55,0,0,0,1.08-1.21,6.38,6.38,0,0,0,.86-1.26,5.57,5.57,0,0,1,.33-.73,1.89,1.89,0,0,0,.25-.85.35.35,0,0,0-.1-.12l-.6.35s-.11-.07-.3-.12a1.1,1.1,0,0,0-.31.29c-.06.09-.11.14-.15.14l-.21,0-.63.11a3.07,3.07,0,0,0-1.28.43l-.59.21h-.13a.7.7,0,0,0-.34.17h-.34a1.78,1.78,0,0,1-.67.29l-.17,0-1.47.5a3.77,3.77,0,0,0-.75.64l-.11,0c-.1,0-.22-.1-.37-.31a1.19,1.19,0,0,1-.23-.58c-.06-1,.74-1.57,2.38-1.82l.58-.27h0l.17,0h0a.63.63,0,0,0,.27-.13,4.76,4.76,0,0,1,.83-.32l.59-.19h.19a.57.57,0,0,0,.32-.13,1.38,1.38,0,0,1,.55-.2,3.28,3.28,0,0,0,.51-.14l.23-.08a.62.62,0,0,0,.23-.11,1,1,0,0,1,.47-.14Z" transform="translate(0 4.13)"/><path d="M339.51,256.29l.23-.21h.08q.1,0,.3-.24l.14-.06a1.22,1.22,0,0,1,.48-.55L341,255a.52.52,0,0,1,.16-.12,1.41,1.41,0,0,0,.34-.3c.15-.17.27-.26.37-.27a.75.75,0,0,1,.23,0,1.08,1.08,0,0,1,.33-.37,1.33,1.33,0,0,0,.4-.42l.19-.1a2.08,2.08,0,0,0,.4-.32.65.65,0,0,1,.46-.22,1.38,1.38,0,0,1,.91.38,1.22,1.22,0,0,1,.51.8l-.18,1.15c-.12.85-.28,1.29-.48,1.35l0,.3c-.13.11-.19.19-.19.25l.11.35a.51.51,0,0,1-.15.23s0,0,0,.08l0,.6a.33.33,0,0,1-.19.28l.09.05a.58.58,0,0,1,.39-.11h.23l.3-.34a1.12,1.12,0,0,0,.28-.15,4.15,4.15,0,0,1,.6-.32l1.82-1.58c.25-.28.44-.42.57-.43s.23.08.24.27a1.14,1.14,0,0,1-.09.54,2.57,2.57,0,0,0-.2.52,1,1,0,0,1-.21.43.9.9,0,0,0-.21.27,2.35,2.35,0,0,1-.45.43,4.48,4.48,0,0,0-.63.57,3.05,3.05,0,0,1-.42.41l-.6.49-.08.15a1,1,0,0,1-.26.15,1.75,1.75,0,0,0-.42.26l-.25.16a.49.49,0,0,1-.28.09.51.51,0,0,0-.33.19c-.09.11-.17.17-.23.17l-.22,0-.28.11a1.07,1.07,0,0,1-.63-.26.83.83,0,0,1-.39-.62v-.08l0-.21a1.37,1.37,0,0,0-.1-.29,2,2,0,0,1-.11-.27l0-.2,0-.09a1.51,1.51,0,0,1,0-.5.73.73,0,0,0,.07-.29c0-.12,0-.22,0-.3l.05-.37a.39.39,0,0,1,.14-.24,3.16,3.16,0,0,1,.09-.4l0-.27.13-.21a.44.44,0,0,0,.12-.32,1.06,1.06,0,0,1,.13-.43,1,1,0,0,0,.12-.27.15.15,0,0,0-.19-.16s-.15.08-.35.25l-.27-.07s-.07,0-.15.15,0,.08-.12.1a.44.44,0,0,0-.24.23l-.11,0-.2-.08h-.06c-.09,0-.15.12-.15.33a.78.78,0,0,1-.41.33l-.31.11a.38.38,0,0,0-.22.27.82.82,0,0,1-.27.39c-.14.12-.23.19-.28.19-.27,0-.42-.13-.44-.43l.08-.69Zm5.86-7.67-.12-.56V248c0-.46.11-.72.42-.79a4.62,4.62,0,0,0,.6-.22,1.05,1.05,0,0,1,.57.42,1.26,1.26,0,0,1,.33.7.49.49,0,0,1,0,.13,1.67,1.67,0,0,0,0,.39.67.67,0,0,1-.26.51.92.92,0,0,1-.56.25.85.85,0,0,1-.53-.26A.87.87,0,0,1,345.37,248.62Z" transform="translate(0 4.13)"/><path d="M354.44,253.81l.4-.21a1.67,1.67,0,0,0,.37-.41l.49-.39a1.7,1.7,0,0,1,.55-.33l.24.08a.8.8,0,0,0,.17-.2.49.49,0,0,1,.35-.2,1.35,1.35,0,0,1,.74.35,1.06,1.06,0,0,1,.49.67l0,.5a5.88,5.88,0,0,0,.16.65v.12l0,.35.08.36-.12.73c0,.18.08.27.21.26a1.24,1.24,0,0,1,.4-.3l.2-.22c.07-.08.13-.12.17-.12a.4.4,0,0,0,.14-.15.47.47,0,0,1,.23-.21.38.38,0,0,0,.19-.22,3.7,3.7,0,0,1,1.19-1.1s.1,0,.19-.15a.56.56,0,0,1,.22-.19l.3-.27.14,0h0a1.28,1.28,0,0,0,.22-.16.58.58,0,0,1,.28-.16,1.21,1.21,0,0,1,.94.31c.25.24.38.42.39.56l-.05.34.13.44v.29l-.05.31a.49.49,0,0,0,.14.25.6.6,0,0,1,.14.21c-.11.13-.17.22-.16.25l0,.27,0,.8q0,.11.21.33a.54.54,0,0,1,.24-.12,1.38,1.38,0,0,0,.24-.11l.08-.06h0a.5.5,0,0,1,.17.05h.06c.08,0,.12-.08.12-.23a.47.47,0,0,1,.27-.39h.35a.88.88,0,0,0,.11-.25,2.11,2.11,0,0,1,.57-.66,1.55,1.55,0,0,1,.77-.47c.15,0,.24.06.24.19a1.68,1.68,0,0,1,0,.31.72.72,0,0,1,.13.35c0,.18-.13.39-.44.62a2.21,2.21,0,0,0-.67.85l-.05.06H366s-.06.08-.12.23-.14.25-.24.27a.46.46,0,0,0-.2.1l-.29.21a5.06,5.06,0,0,0-.54.63c-.31.37-.57.56-.79.58a2.23,2.23,0,0,1-.54-.12,1.27,1.27,0,0,1-.53-.29,2.94,2.94,0,0,0-.39-.34,1,1,0,0,1-.28-.76s0-.05.07-.1a.22.22,0,0,0,.07-.12,1.41,1.41,0,0,1-.37-.61.65.65,0,0,1,0-.19.64.64,0,0,0,0-.19l-.06-.51.05-.27,0-.16,0-.75c0-.11-.08-.17-.21-.16s-.1,0-.16.13a.65.65,0,0,1-.24.19.93.93,0,0,0-.31.44,1.17,1.17,0,0,0-.34.3c0,.1-.1.15-.14.15l-.12,0a.36.36,0,0,0-.16.27v.06l0,.12c0,.08-.06.17-.2.26a2,2,0,0,0-.51.63.69.69,0,0,0-.2,0l-.15.36a.75.75,0,0,0-.26.33l-.17.09a3.45,3.45,0,0,1-.19.34l-.08.16c-.38.52-.66.79-.83.8s-.37-.2-.63-.62a2.59,2.59,0,0,1-.42-1l0-.54a1.28,1.28,0,0,0-.13-.23v-.06s0-.13.1-.34l0-.44a.23.23,0,0,0,0-.09v-.07a1,1,0,0,1,.1-.24l-.11-.42,0-.23-.06-.51,0-.46a.31.31,0,0,0-.09-.15c-.06-.07-.09-.1-.11-.1a2.28,2.28,0,0,0-.59.37,4.13,4.13,0,0,0-.64.57l-.44.48a.94.94,0,0,0-.38.77s0,0-.06,0,0,0-.09-.05H354a2.47,2.47,0,0,0-.41.66l-.05.06-.28,0c-.24,0-.34.27-.31.76,0,.09-.05.15-.17.19a.41.41,0,0,0-.27.26,2.22,2.22,0,0,1-.25.44,1.1,1.1,0,0,0-.37.24s-.1.17-.29.46a6,6,0,0,0-.33.52q0,.08-.18.18c-.11.07-.16.13-.16.18l.06.24c0,.16-.14.24-.44.26q-.88.06-1-1.77a.85.85,0,0,1,.16-.47,5.43,5.43,0,0,0,.32-.64,7.93,7.93,0,0,0,.6-.84,6.62,6.62,0,0,1,.53-.75l.17-.32a.38.38,0,0,1,.06-.27.38.38,0,0,0,.06-.22c0-.15-.05-.23-.13-.22a.62.62,0,0,0-.43.16,1,1,0,0,1-.35.22.36.36,0,0,0-.24.22,1.17,1.17,0,0,0-.41.4c-.14.19-.23.32-.28.37a1,1,0,0,0-.12.21.22.22,0,0,1-.16.14.36.36,0,0,0-.18.12.38.38,0,0,1-.28.1c-.08,0-.17-.08-.25-.25a1.28,1.28,0,0,1-.13-.32c0-.71.39-1.35,1.3-1.93a1.21,1.21,0,0,0,.29-.22.87.87,0,0,1,.22-.17l0-.11a2.52,2.52,0,0,1,.84-.55h.21l1-.31q.61-.18.72,1.38l0,.26.07.12a3.37,3.37,0,0,1,.48-.45,1.9,1.9,0,0,0,.35-.35A1.25,1.25,0,0,1,354.44,253.81Z" transform="translate(0 4.13)"/><path d="M369.3,253.6l.29-.26A.38.38,0,0,0,370,253a.75.75,0,0,1,.44-.61l.16-.26a3.89,3.89,0,0,1,1.16-.64,1,1,0,0,0,.32-.29l.06,0,.24,0a2.19,2.19,0,0,0,.48-.13,1.49,1.49,0,0,1,.57-.14l.61-.07a.63.63,0,0,1,.24.08.93.93,0,0,0,.45.05.82.82,0,0,1,.61.26.83.83,0,0,1,.3.53,1.28,1.28,0,0,1-.41.94,1.73,1.73,0,0,1-.71.57,1.48,1.48,0,0,1-.36.34,1,1,0,0,0-.25.22c-.09.1-.16.15-.22.15a.12.12,0,0,1-.09,0,.12.12,0,0,0-.09,0c-.15,0-.31.21-.47.6l-.27,0a.77.77,0,0,0-.3.37.29.29,0,0,1-.29.21c-.34.38-.57.58-.7.59l-.2,0a.43.43,0,0,0-.1.31c0,.12-.07.19-.22.22l-.18.19-.15,0-.27.32a.9.9,0,0,0-.44.17q0,.18-.06.45c0,.19-.05.29-.05.31,0,.28.29.4.8.37l.7-.14a1,1,0,0,0,.51-.18.93.93,0,0,1,.51-.18,1.13,1.13,0,0,0,.26-.07l.14.05A1,1,0,0,1,373,257a.93.93,0,0,1,.43-.2l.14-.09a.36.36,0,0,1,.16-.25l.11-.11a.31.31,0,0,1,.21-.13h.2l.06,0a.73.73,0,0,1,.46-.48c.21-.05.34-.13.38-.23a.38.38,0,0,1,.28-.2.54.54,0,0,0,.33-.21,1.68,1.68,0,0,1,.32-.34,2.92,2.92,0,0,0,.27-.23c.06,0,.1-.08.14-.08s.09,0,.09.12,0,.13.07.13.06,0,.05-.06a.49.49,0,0,0,0-.15v-.1a.28.28,0,0,1,.22-.3l.63-.47c0-.2.05-.32.14-.36a1,1,0,0,0,.21-.13.21.21,0,0,1,.15-.08q.19,0,.21.21l-.05.38.09.39c0,.06,0,.14-.12.25a1,1,0,0,0-.18.48c0,.21-.1.33-.17.35h-.09a1.36,1.36,0,0,1-.4.35.5.5,0,0,0-.23.2l-.46.6a2.6,2.6,0,0,0-.23.28c-.06.08-.12.12-.15.12l-.13-.11s0,0-.06,0-.15.06-.17.18a.62.62,0,0,1-.14.32,1.54,1.54,0,0,0-.54.41l-.09,0h-.26c-.13,0-.21.11-.25.3a.44.44,0,0,1-.39.36.9.9,0,0,0-.48.2l-.13.07a2.14,2.14,0,0,0-.39.25l-1.2.51a.55.55,0,0,1-.19.09l-.4.08c-.06,0-.12,0-.18-.1s-.11-.12-.13-.11l-.26.1a1.88,1.88,0,0,1-.55.12.6.6,0,0,1-.32-.08,2.06,2.06,0,0,0-.29-.13c-.28,0-.49-.19-.64-.62l-.17,0a4.66,4.66,0,0,1-.46-1,.41.41,0,0,0-.28-.15.27.27,0,0,1-.21-.28,1.1,1.1,0,0,1,.23-.9c.18-.16.28-.28.29-.36l.16-.77a.71.71,0,0,0,.13-.3l.3-.63Zm3-1.06-.17.1a3.12,3.12,0,0,0-.33.28,3,3,0,0,1-.53.39,1.69,1.69,0,0,0-.51.76,3.11,3.11,0,0,0-.24.69c0,.05,0,.08.09.08l.48-.25a2.23,2.23,0,0,0,.5-.37,7.09,7.09,0,0,1,.66-.53l.11-.13a1.38,1.38,0,0,1,.26-.23A1.32,1.32,0,0,0,373,253l.14-.06a1,1,0,0,1,.48-.51c.16-.07.24-.14.24-.19s-.1-.17-.29-.16a.8.8,0,0,0-.34.16l-.33,0a1.13,1.13,0,0,0-.31.2Z" transform="translate(0 4.13)"/><path d="M385,242.16l-.16-.71a.4.4,0,0,1,.07-.25A1.19,1.19,0,0,0,385,241a.34.34,0,0,1,.09-.19,2.84,2.84,0,0,0,.23-.47.77.77,0,0,1,.63-.47.59.59,0,0,1,.4-.17c.24,0,.53.19.88.6a2.55,2.55,0,0,1,.54.8.77.77,0,0,1-.3.56,1.24,1.24,0,0,1-.24.85,4.5,4.5,0,0,0-.34.54.8.8,0,0,1-.11.22,6.71,6.71,0,0,0-.49.74c-.3.47-.54.72-.73.73a3,3,0,0,1-.44-.15,1.51,1.51,0,0,1-.4-.18,1.05,1.05,0,0,1,.37-.78,1.32,1.32,0,0,0,.41-.79,1.38,1.38,0,0,1-.29-.35Zm3.74-.23v-.19l-.14-.49a.49.49,0,0,1,.07-.32,1.22,1.22,0,0,0,.11-.24.79.79,0,0,1,.08-.16,3.51,3.51,0,0,0,.21-.45.8.8,0,0,1,.62-.49.57.57,0,0,1,.4-.17.78.78,0,0,1,.7.38,5.85,5.85,0,0,0,.49.63.7.7,0,0,1,.22.4.78.78,0,0,1-.3.56,3.63,3.63,0,0,1-.83,1.81c-.58.83-.93,1.25-1.07,1.26a3.46,3.46,0,0,1-.44-.15,1.74,1.74,0,0,1-.4-.18,1.23,1.23,0,0,1,.39-.83,1.23,1.23,0,0,0,.42-.74.81.81,0,0,1-.22-.23,3,3,0,0,0-.21-.26C388.79,242,388.76,242,388.76,241.93Z" transform="translate(0 4.13)"/></svg>